<svg xmlns="http://www.w3.org/2000/svg" width="40" height="40" viewBox="0 0 40 40" fill="none">
  <mask id="mask0_25_2753" style="mask-type:alpha" maskUnits="userSpaceOnUse" x="8" y="8" width="25" height="25">
    <rect x="8.06274" y="8.30664" width="24" height="24" fill="#D9D9D9"/>
  </mask>
  <g mask="url(#mask0_25_2753)">
    <path d="M19.9343 26.5067C20.378 26.5067 20.7603 26.3496 21.0813 26.0353C21.4023 25.7209 21.5628 25.342 21.5628 24.8983C21.5628 24.4546 21.4035 24.0784 21.0849 23.7698C20.7662 23.4611 20.3851 23.3067 19.9414 23.3067C19.4977 23.3067 19.1153 23.4599 18.7943 23.7662C18.4733 24.0726 18.3128 24.4476 18.3128 24.8912C18.3128 25.3349 18.4722 25.7151 18.7908 26.0317C19.1095 26.3484 19.4906 26.5067 19.9343 26.5067ZM20.0628 31.4567C18.5188 31.4567 17.0649 31.1684 15.7012 30.5916C14.3374 30.0149 13.1534 29.2245 12.1492 28.2203C11.1451 27.2162 10.3547 26.0322 9.77794 24.6684C9.20121 23.3046 8.91284 21.8507 8.91284 20.3067C8.91284 18.7585 9.20169 17.3047 9.77939 15.9455C10.3571 14.5863 11.1502 13.4034 12.1588 12.397C13.1673 11.3905 14.3512 10.5988 15.7106 10.022C17.07 9.44515 18.5208 9.15674 20.0628 9.15674C21.6109 9.15674 23.0649 9.44501 24.4247 10.0216C25.7846 10.5981 26.9676 11.3895 27.9738 12.3957C28.9801 13.402 29.7715 14.5852 30.348 15.9455C30.9246 17.3058 31.2128 18.7602 31.2128 20.3088C31.2128 21.8574 30.9244 23.3095 30.3476 24.6649C29.7708 26.0203 28.9791 27.2023 27.9726 28.2108C26.9661 29.2193 25.7833 30.0125 24.4241 30.5902C23.0648 31.1679 21.6111 31.4567 20.0628 31.4567ZM20.0571 28.0567C22.2361 28.0567 24.0735 27.3108 25.5692 25.8189C27.065 24.327 27.8128 22.4915 27.8128 20.3125C27.8128 18.1334 27.0669 16.2961 25.575 14.8003C24.0831 13.3046 22.2476 12.5567 20.0686 12.5567C17.8895 12.5567 16.0522 13.3027 14.5564 14.7946C13.0607 16.2865 12.3128 18.122 12.3128 20.301C12.3128 22.48 13.0588 24.3174 14.5507 25.8131C16.0426 27.3089 17.8781 28.0567 20.0571 28.0567ZM20.0903 16.4817C20.3709 16.4817 20.6115 16.5728 20.812 16.755C21.0126 16.9371 21.1128 17.1667 21.1128 17.4437C21.1128 17.7357 21.0295 17.9942 20.8628 18.2192C20.6962 18.4442 20.5045 18.6484 20.2878 18.8317C19.8878 19.1817 19.5253 19.5673 19.2003 19.9885C18.8753 20.4096 18.7128 20.8824 18.7128 21.4067C18.7128 21.7249 18.8356 21.992 19.0811 22.2079C19.3266 22.4238 19.613 22.5317 19.9403 22.5317C20.2901 22.5317 20.5896 22.4192 20.8389 22.1942C21.0882 21.9692 21.2712 21.6901 21.3878 21.3567C21.5045 21.0734 21.6515 20.8148 21.8287 20.581C22.006 20.3471 22.2007 20.1307 22.4128 19.9317C22.7962 19.5651 23.1128 19.1471 23.3628 18.6779C23.6128 18.2087 23.7378 17.7213 23.7378 17.2156C23.7378 16.2764 23.3878 15.5109 22.6878 14.9192C21.9878 14.3276 21.168 14.0317 20.2284 14.0317C19.5011 14.0317 18.825 14.1901 18.2001 14.5067C17.5753 14.8234 17.0642 15.274 16.6668 15.8584C16.4975 16.124 16.4459 16.4108 16.5121 16.7189C16.5782 17.027 16.7421 17.2713 17.0038 17.4517C17.3265 17.6384 17.667 17.6901 18.0253 17.6067C18.3837 17.5234 18.6878 17.3401 18.9378 17.0567C19.0878 16.8901 19.2604 16.7526 19.4554 16.6442C19.6505 16.5359 19.8621 16.4817 20.0903 16.4817Z" fill="white"/>
  </g>
</svg>