<svg xmlns="http://www.w3.org/2000/svg" width="40" height="40" viewBox="0 0 40 40" fill="none">
  <path d="M0.316406 29.6296V27.0254C0.316406 25.8404 0.922683 24.8759 2.13524 24.1318C3.34779 23.3877 4.94616 23.0157 6.93034 23.0157C7.28859 23.0157 7.63307 23.0226 7.96377 23.0364C8.29446 23.0502 8.61138 23.0846 8.91452 23.1397C8.52871 23.7184 8.23935 24.3247 8.04644 24.9585C7.85353 25.5924 7.75708 26.2538 7.75708 26.9427V29.6296H0.316406ZM10.2373 29.6296V26.9427C10.2373 26.0609 10.4784 25.2548 10.9607 24.5245C11.443 23.7942 12.125 23.1535 13.0069 22.6023C13.8887 22.0512 14.9428 21.6378 16.1692 21.3622C17.3955 21.0866 18.7252 20.9489 20.1582 20.9489C21.6188 20.9489 22.9622 21.0866 24.1886 21.3622C25.4149 21.6378 26.469 22.0512 27.3509 22.6023C28.2327 23.1535 28.9079 23.7942 29.3764 24.5245C29.8449 25.2548 30.0791 26.0609 30.0791 26.9427V29.6296H10.2373ZM32.5593 29.6296V26.9427C32.5593 26.2262 32.4698 25.551 32.2906 24.9172C32.1115 24.2834 31.8428 23.6909 31.4846 23.1397C31.7877 23.0846 32.0977 23.0502 32.4146 23.0364C32.7316 23.0226 33.0554 23.0157 33.3861 23.0157C35.3702 23.0157 36.9686 23.3809 38.1812 24.1111C39.3937 24.8414 40 25.8128 40 27.0254V29.6296H32.5593ZM6.93034 21.3622C6.02092 21.3622 5.24241 21.0384 4.59479 20.3908C3.94718 19.7432 3.62337 18.9647 3.62337 18.0553C3.62337 17.1183 3.94718 16.3329 4.59479 15.699C5.24241 15.0652 6.02092 14.7483 6.93034 14.7483C7.86731 14.7483 8.65272 15.0652 9.28655 15.699C9.92039 16.3329 10.2373 17.1183 10.2373 18.0553C10.2373 18.9647 9.92039 19.7432 9.28655 20.3908C8.65272 21.0384 7.86731 21.3622 6.93034 21.3622ZM33.3861 21.3622C32.4767 21.3622 31.6981 21.0384 31.0505 20.3908C30.4029 19.7432 30.0791 18.9647 30.0791 18.0553C30.0791 17.1183 30.4029 16.3329 31.0505 15.699C31.6981 15.0652 32.4767 14.7483 33.3861 14.7483C34.323 14.7483 35.1084 15.0652 35.7423 15.699C36.3761 16.3329 36.693 17.1183 36.693 18.0553C36.693 18.9647 36.3761 19.7432 35.7423 20.3908C35.1084 21.0384 34.323 21.3622 33.3861 21.3622ZM20.1582 19.7087C18.7803 19.7087 17.6091 19.2265 16.6446 18.2619C15.68 17.2974 15.1978 16.1262 15.1978 14.7483C15.1978 13.3428 15.68 12.1647 16.6446 11.214C17.6091 10.2632 18.7803 9.78784 20.1582 9.78784C21.5637 9.78784 22.7418 10.2632 23.6925 11.214C24.6433 12.1647 25.1187 13.3428 25.1187 14.7483C25.1187 16.1262 24.6433 17.2974 23.6925 18.2619C22.7418 19.2265 21.5637 19.7087 20.1582 19.7087Z" fill="white"/>
</svg>