<svg width="186" height="206" viewBox="0 0 186 206" fill="none" xmlns="http://www.w3.org/2000/svg">
<g id="Group" filter="url(#filter0_d_353_1639)">
<g id="Group_2">
<g id="Group_3">
<path id="Vector" d="M137.55 93.3192L106.28 76.3005C102.204 74.0974 97.1512 73.1473 91.671 73.9184L38.7834 81.3538L38.7421 103.385C38.7421 103.743 38.7559 104.087 38.7834 104.431C38.7972 104.748 38.7834 105.078 38.7421 105.395L38.687 136.926L70.0671 154L85.6126 141.043C86.301 140.479 87.1134 140.093 87.9258 139.983L122.982 135.054C129.591 134.131 135.76 130.895 140.4 125.925C144.848 121.147 147.312 115.364 147.312 109.608C147.326 102.379 143.485 96.5137 137.55 93.3192ZM137.068 121.395C134.039 125.085 129.936 127.467 125.53 128.087L85.2959 133.732L85.3234 120.692C85.3785 120.1 85.3785 119.508 85.3234 118.916V112.252L85.3509 102.903L108.497 99.6393L118.659 98.2211L125.571 97.2435C126.328 97.1333 127.058 97.092 127.788 97.092C128.077 97.092 128.366 97.1058 128.655 97.1195C129.578 97.1609 130.473 97.2985 131.326 97.5189C131.602 97.5877 131.863 97.6703 132.125 97.7529C132.676 97.9182 133.199 98.1247 133.708 98.3725C133.887 98.4552 134.066 98.5378 134.245 98.6342C134.314 98.6617 134.397 98.703 134.466 98.7581C134.714 98.882 134.961 99.0197 135.196 99.1849C135.43 99.3226 135.65 99.4741 135.856 99.6393C136.132 99.8183 136.393 100.025 136.655 100.259C136.834 100.397 136.999 100.562 137.165 100.727C137.426 100.961 137.688 101.223 137.908 101.498C138.073 101.663 138.225 101.842 138.362 102.035C138.541 102.255 138.707 102.476 138.872 102.724C139.051 102.971 139.202 103.219 139.368 103.495C139.505 103.729 139.629 103.977 139.753 104.224C140.001 104.706 140.208 105.188 140.387 105.712C140.442 105.849 140.497 105.987 140.524 106.138C140.965 107.488 141.185 108.934 141.185 110.476C141.185 114.276 139.712 118.159 137.054 121.395H137.068Z" fill="#25D366"/>
<path id="Vector_2" d="M141.199 110.475C141.199 114.276 139.726 118.158 137.068 121.394C134.039 125.084 129.936 127.466 125.53 128.086L85.2959 133.731L85.3234 120.692C85.3785 120.1 85.3785 119.508 85.3234 118.916V112.251L85.351 102.902L108.497 99.6389L118.659 98.2206L125.571 97.243C126.328 97.1329 127.058 97.0916 127.788 97.0916C128.077 97.0916 128.366 97.1053 128.655 97.1191C129.578 97.1604 130.473 97.2981 131.326 97.5184C131.602 97.5872 131.863 97.6699 132.125 97.7525C132.676 97.9315 133.199 98.138 133.709 98.3721C133.888 98.4547 134.067 98.5373 134.246 98.6337C134.314 98.6612 134.397 98.7026 134.466 98.7576C134.714 98.8816 134.962 99.033 135.196 99.1845C135.43 99.3222 135.65 99.4736 135.857 99.6389C136.132 99.8179 136.394 100.024 136.655 100.258C136.834 100.396 136.999 100.561 137.165 100.727C137.426 100.961 137.688 101.222 137.908 101.498C138.073 101.663 138.225 101.842 138.363 102.035C138.542 102.255 138.707 102.475 138.872 102.723C139.051 102.971 139.202 103.219 139.368 103.494C139.505 103.728 139.629 103.976 139.753 104.224C140.001 104.706 140.208 105.188 140.387 105.711C140.442 105.849 140.483 105.986 140.524 106.138C140.965 107.487 141.185 108.933 141.185 110.475H141.199Z" fill="#0F172A"/>
</g>
</g>
<g id="Group_4">
<path id="Vector_3" d="M94.5621 52.9883L94.4526 53.0157V52.9336L94.5621 52.9883Z" fill="#020404"/>
<path id="Vector_4" d="M125.075 44.576C124.965 44.5209 124.854 44.4521 124.744 44.397C124.703 44.3832 124.662 44.3557 124.607 44.3281L93.6947 27.5021C91.3952 26.2491 88.6827 25.7259 85.7636 26.139L38.8932 32.7207L38.8105 76.796L70.1906 93.8698L117.075 87.2743C125.268 86.1315 131.946 77.9939 131.973 69.1403V57.161C132.001 51.4606 129.233 46.8341 125.075 44.576ZM125.832 70.0077C125.818 75.2125 121.894 79.9904 117.075 80.6651L76.3317 86.3931L76.373 64.8993V55.55L94.452 53.0165V52.9339L94.5622 52.989L112.077 50.538L117.144 49.8221C117.529 49.767 117.915 49.7394 118.287 49.7394C118.548 49.7394 118.796 49.7532 119.044 49.7807H119.058C119.319 49.8083 119.581 49.8496 119.829 49.9047C120.379 50.0148 120.903 50.1938 121.385 50.4141L121.605 50.538C121.77 50.6069 121.935 50.7033 122.087 50.7997C122.211 50.8547 122.321 50.9374 122.431 51.02C122.83 51.2816 123.188 51.5845 123.519 51.9287C123.601 52.0114 123.698 52.1077 123.78 52.2041C123.794 52.2179 123.808 52.2454 123.822 52.2592C124.097 52.5759 124.359 52.9201 124.579 53.2781C124.744 53.5535 124.896 53.8427 125.033 54.1456C125.116 54.3108 125.199 54.4898 125.268 54.6688C125.46 55.192 125.612 55.729 125.708 56.3074C125.763 56.5827 125.791 56.8581 125.818 57.1473C125.846 57.4364 125.86 57.7256 125.86 58.0285L125.832 70.0077Z" fill="#25D366"/>
<path id="Vector_5" d="M94.5621 52.9883L94.4526 53.0157V52.9336L94.5621 52.9883Z" fill="#0F172A"/>
<path id="Vector_6" d="M125.86 58.0283L125.832 70.0076C125.819 75.2123 121.894 79.9902 117.075 80.6649L76.332 86.3929L76.3733 64.8992V55.5499L94.4523 53.0163L94.5625 52.9888L112.077 50.5379L117.144 49.8219C117.53 49.7668 117.915 49.7393 118.287 49.7393C118.548 49.7393 118.796 49.753 119.044 49.7806H119.058C119.32 49.8081 119.581 49.8494 119.829 49.9045C120.38 50.0146 120.903 50.1936 121.385 50.414L121.605 50.5379C121.771 50.6067 121.936 50.7031 122.087 50.7995C122.211 50.8546 122.321 50.9372 122.431 51.0198C122.831 51.2814 123.189 51.5843 123.519 51.9286C123.602 52.0112 123.698 52.1076 123.781 52.2039C123.795 52.2177 123.808 52.2453 123.822 52.259C124.097 52.5757 124.359 52.9199 124.579 53.2779C124.745 53.5533 124.896 53.8425 125.034 54.1454C125.116 54.3106 125.199 54.4896 125.268 54.6686C125.461 55.1919 125.612 55.7289 125.708 56.3072C125.764 56.5826 125.791 56.858 125.819 57.1471C125.846 57.4363 125.86 57.7254 125.86 58.0283Z" fill="#0F172A"/>
<path id="Vector_7" d="M94.4526 52.9336V53.0157L94.5621 52.9883L94.4526 52.9336Z" fill="#020404"/>
</g>
</g>
<defs>
<filter id="filter0_d_353_1639" x="0.286999" y="0.39999" width="185.426" height="204.8" filterUnits="userSpaceOnUse" color-interpolation-filters="sRGB">
<feFlood flood-opacity="0" result="BackgroundImageFix"/>
<feColorMatrix in="SourceAlpha" type="matrix" values="0 0 0 0 0 0 0 0 0 0 0 0 0 0 0 0 0 0 127 0" result="hardAlpha"/>
<feOffset dy="12.8"/>
<feGaussianBlur stdDeviation="19.2"/>
<feColorMatrix type="matrix" values="0 0 0 0 0.137255 0 0 0 0 0.121569 0 0 0 0 0.12549 0 0 0 0.5 0"/>
<feBlend mode="normal" in2="BackgroundImageFix" result="effect1_dropShadow_353_1639"/>
<feBlend mode="normal" in="SourceGraphic" in2="effect1_dropShadow_353_1639" result="shape"/>
</filter>
</defs>
</svg>
