<svg xmlns="http://www.w3.org/2000/svg" width="40" height="40" viewBox="0 0 40 40" fill="none">
  <mask id="mask0_25_2702" style="mask-type:alpha" maskUnits="userSpaceOnUse" x="0" y="0" width="40" height="40">
    <rect width="40" height="40" fill="#D9D9D9"/>
  </mask>
  <g mask="url(#mask0_25_2702)">
    <path d="M11.2729 32V29.8182H28.7275V32H11.2729ZM11.2729 10.1818V8H28.7275V10.1818H11.2729ZM20.0002 21.0909C20.9093 21.0909 21.682 20.7727 22.3184 20.1364C22.9547 19.5 23.2729 18.7273 23.2729 17.8182C23.2729 16.9091 22.9547 16.1364 22.3184 15.5C21.682 14.8636 20.9093 14.5455 20.0002 14.5455C19.0911 14.5455 18.3183 14.8636 17.682 15.5C17.0456 16.1364 16.7274 16.9091 16.7274 17.8182C16.7274 18.7273 17.0456 19.5 17.682 20.1364C18.3183 20.7727 19.0911 21.0909 20.0002 21.0909ZM11.2729 28.7273C10.6729 28.7273 10.1592 28.5136 9.73197 28.0864C9.3047 27.6591 9.09106 27.1455 9.09106 26.5455V13.4545C9.09106 12.8545 9.3047 12.3409 9.73197 11.9136C10.1592 11.4864 10.6729 11.2727 11.2729 11.2727H28.7275C29.3275 11.2727 29.8411 11.4864 30.2684 11.9136C30.6956 12.3409 30.9093 12.8545 30.9093 13.4545V26.5455C30.9093 27.1455 30.6956 27.6591 30.2684 28.0864C29.8411 28.5136 29.3275 28.7273 28.7275 28.7273H11.2729ZM13.182 26.5455C14.0002 25.5273 14.9911 24.7273 16.1547 24.1455C17.3183 23.5636 18.6002 23.2727 20.0002 23.2727C21.4002 23.2727 22.682 23.5636 23.8456 24.1455C25.0093 24.7273 26.0002 25.5273 26.8184 26.5455H28.7275V13.4545H11.2729V26.5455H13.182ZM16.4002 26.5455H23.6002C23.0729 26.1818 22.5047 25.9091 21.8956 25.7273C21.2865 25.5455 20.6547 25.4545 20.0002 25.4545C19.3456 25.4545 18.7138 25.5455 18.1047 25.7273C17.4956 25.9091 16.9274 26.1818 16.4002 26.5455ZM20.0002 18.9091C19.6911 18.9091 19.432 18.8045 19.2229 18.5955C19.0138 18.3864 18.9093 18.1273 18.9093 17.8182C18.9093 17.5091 19.0138 17.25 19.2229 17.0409C19.432 16.8318 19.6911 16.7273 20.0002 16.7273C20.3093 16.7273 20.5684 16.8318 20.7774 17.0409C20.9865 17.25 21.0911 17.5091 21.0911 17.8182C21.0911 18.1273 20.9865 18.3864 20.7774 18.5955C20.5684 18.8045 20.3093 18.9091 20.0002 18.9091Z" fill="white"/>
  </g>
</svg>