<svg width="40" height="40" viewBox="0 0 40 40" fill="none" xmlns="http://www.w3.org/2000/svg">
<g id="Frame 34466">
<g id="communication">
<mask id="mask0_25_2565" style="mask-type:alpha" maskUnits="userSpaceOnUse" x="8" y="8" width="25" height="25">
<rect id="Bounding box" x="8.06274" y="8.10083" width="24" height="24" fill="#D9D9D9"/>
</mask>
<g mask="url(#mask0_25_2565)">
<path id="communication_2" d="M17.9878 21.7758L16.4878 20.2758C16.6117 20.0924 16.7009 19.9049 16.7557 19.7133C16.8105 19.5216 16.8378 19.3238 16.8378 19.1199C16.8378 18.9116 16.8105 18.7156 16.7557 18.5319C16.7009 18.3482 16.6117 18.1628 16.4878 17.9758L17.9878 16.4508C18.3045 16.8008 18.5462 17.2091 18.7128 17.6758C18.8795 18.1424 18.9628 18.6174 18.9628 19.1008C18.9628 19.5841 18.8795 20.0591 18.7128 20.5258C18.5462 20.9924 18.3045 21.4091 17.9878 21.7758ZM20.9878 24.8008L19.5128 23.3008C20.0295 22.8174 20.4212 22.2008 20.6878 21.4508C20.9545 20.7008 21.0878 19.9258 21.0878 19.1258C21.0878 18.3258 20.9545 17.5508 20.6878 16.8008C20.4212 16.0508 20.0295 15.4341 19.5128 14.9508L21.0128 13.4258C21.7462 14.1091 22.2878 14.9558 22.6378 15.9659C22.9878 16.9759 23.1628 18.0301 23.1628 19.1284C23.1628 20.21 22.9845 21.2534 22.6278 22.2588C22.271 23.2641 21.7244 24.1114 20.9878 24.8008ZM12.8664 20.3008C12.1307 20.3008 11.5045 20.0377 10.9878 19.5116C10.4712 18.9855 10.2128 18.3522 10.2128 17.6116C10.2128 16.8877 10.4717 16.2674 10.9895 15.7508C11.5073 15.2341 12.1364 14.9758 12.877 14.9758C13.6009 14.9758 14.2212 15.2371 14.7378 15.7597C15.2545 16.2824 15.5128 16.9032 15.5128 17.6222C15.5128 18.3579 15.2515 18.9883 14.7289 19.5133C14.2062 20.0383 13.5854 20.3008 12.8664 20.3008ZM8.16284 25.4758V24.2008C8.16284 23.6654 8.31284 23.1732 8.61284 22.7242C8.91284 22.2753 9.31284 21.9341 9.81284 21.7008C10.2795 21.4841 10.767 21.3258 11.2753 21.2258C11.7837 21.1258 12.3128 21.0758 12.8628 21.0758C13.4128 21.0758 13.9462 21.1258 14.4628 21.2258C14.9795 21.3258 15.4712 21.4841 15.9378 21.7008C16.4395 21.9341 16.8358 22.2753 17.1266 22.7242C17.4174 23.1732 17.5628 23.6654 17.5628 24.2008V25.4758H8.16284ZM27.2664 20.3008C26.5307 20.3008 25.9045 20.0377 25.3878 19.5116C24.8712 18.9855 24.6128 18.3522 24.6128 17.6116C24.6128 16.8877 24.8717 16.2674 25.3895 15.7508C25.9073 15.2341 26.5364 14.9758 27.277 14.9758C28.0009 14.9758 28.6212 15.2371 29.1378 15.7597C29.6545 16.2824 29.9128 16.9032 29.9128 17.6222C29.9128 18.3579 29.6515 18.9883 29.1289 19.5133C28.6062 20.0383 27.9854 20.3008 27.2664 20.3008ZM22.5628 25.4758V24.2008C22.5628 23.6654 22.7083 23.1732 22.9991 22.7242C23.2899 22.2753 23.6861 21.9341 24.1878 21.7008C24.6545 21.4841 25.1462 21.3258 25.6628 21.2258C26.1795 21.1258 26.7128 21.0758 27.2628 21.0758C27.8128 21.0758 28.342 21.1258 28.8503 21.2258C29.3587 21.3258 29.8462 21.4841 30.3128 21.7008C30.8128 21.9341 31.2128 22.2753 31.5128 22.7242C31.8128 23.1732 31.9628 23.6654 31.9628 24.2008V25.4758H22.5628Z" fill="white"/>
</g>
</g>
</g>
</svg>
