<svg xmlns="http://www.w3.org/2000/svg" width="24" height="23" viewBox="0 0 24 23" fill="none">
  <path d="M8.3001 22.8587L7.8251 19.3337C7.7751 19.3004 7.72093 19.267 7.6626 19.2337C7.60426 19.2004 7.5501 19.167 7.5001 19.1337L4.1751 20.5337L0.475098 14.0087L3.2751 11.8837C3.2751 11.8504 3.27926 11.817 3.2876 11.7837C3.29593 11.7504 3.3001 11.717 3.3001 11.6837C3.3001 11.6504 3.29593 11.6212 3.2876 11.5962C3.27926 11.5712 3.2751 11.542 3.2751 11.5087L0.475098 9.38369L4.1751 2.93369L7.5001 4.28369C7.56676 4.26702 7.62926 4.24202 7.6876 4.20869C7.74593 4.17536 7.8001 4.14202 7.8501 4.10869L8.3001 0.533691H15.7001L16.1501 4.10869L16.5501 4.30869L19.8251 2.93369L23.5251 9.38369L20.6751 11.5087V11.7087C20.6751 11.742 20.6709 11.7754 20.6626 11.8087C20.6543 11.842 20.6501 11.8754 20.6501 11.9087L23.5001 14.0087L19.7501 20.5337L16.4501 19.1337C16.4001 19.1504 16.3501 19.1795 16.3001 19.2212C16.2501 19.2629 16.2084 19.292 16.1751 19.3087L15.7001 22.8587H8.3001ZM11.9501 15.4587C13.0001 15.4587 13.8918 15.092 14.6251 14.3587C15.3584 13.6254 15.7251 12.7337 15.7251 11.6837C15.7251 10.6504 15.3584 9.76286 14.6251 9.02119C13.8918 8.27952 13.0001 7.90869 11.9501 7.90869C10.9001 7.90869 10.0084 8.27952 9.2751 9.02119C8.54176 9.76286 8.1751 10.6504 8.1751 11.6837C8.1751 12.7337 8.54176 13.6254 9.2751 14.3587C10.0084 15.092 10.9001 15.4587 11.9501 15.4587Z" fill="white"/>
</svg>