<svg xmlns="http://www.w3.org/2000/svg" width="40" height="40" viewBox="0 0 40 40" fill="none">
  <path d="M29 21.5V18.5H35V21.5H29ZM30.8 32L26 28.4L27.8 26L32.6 29.6L30.8 32ZM27.8 14L26 11.6L30.8 8L32.6 10.4L27.8 14ZM9.5 30.5V24.5H8C7.175 24.5 6.46875 24.2063 5.88125 23.6188C5.29375 23.0313 5 22.325 5 21.5V18.5C5 17.675 5.29375 16.9688 5.88125 16.3813C6.46875 15.7938 7.175 15.5 8 15.5H14L21.5 11V29L14 24.5H12.5V30.5H9.5ZM23 25.025V14.975C23.675 15.575 24.2188 16.3063 24.6313 17.1688C25.0438 18.0312 25.25 18.975 25.25 20C25.25 21.025 25.0438 21.9688 24.6313 22.8312C24.2188 23.6937 23.675 24.425 23 25.025ZM8 18.5V21.5H14.825L18.5 23.675V16.325L14.825 18.5H8Z" fill="white"/>
</svg>