<svg xmlns="http://www.w3.org/2000/svg" width="40" height="40" viewBox="0 0 40 40" fill="none">
  <path d="M22.5126 27.4C22.996 27.4 23.4001 27.2333 23.7251 26.9C24.0501 26.5666 24.2126 26.1666 24.2126 25.7C24.2126 25.2166 24.0501 24.8125 23.7251 24.4875C23.4001 24.1625 22.996 24 22.5126 24H11.6126C11.1293 24 10.7251 24.1625 10.4001 24.4875C10.0751 24.8125 9.91265 25.2166 9.91265 25.7C9.91265 26.1666 10.0751 26.5666 10.4001 26.9C10.7251 27.2333 11.1293 27.4 11.6126 27.4H22.5126ZM22.5126 21.7C22.996 21.7 23.4001 21.5333 23.7251 21.2C24.0501 20.8666 24.2126 20.4666 24.2126 20C24.2126 19.5166 24.0501 19.1125 23.7251 18.7875C23.4001 18.4625 22.996 18.3 22.5126 18.3H11.6126C11.1293 18.3 10.7251 18.4625 10.4001 18.7875C10.0751 19.1125 9.91265 19.5166 9.91265 20C9.91265 20.4666 10.0751 20.8666 10.4001 21.2C10.7251 21.5333 11.1293 21.7 11.6126 21.7H22.5126ZM28.5126 15.975C28.996 15.975 29.4001 15.8125 29.7251 15.4875C30.0501 15.1625 30.2126 14.7583 30.2126 14.275C30.2126 13.8083 30.0501 13.4083 29.7251 13.075C29.4001 12.7416 28.996 12.575 28.5126 12.575H11.6126C11.1293 12.575 10.7251 12.7416 10.4001 13.075C10.0751 13.4083 9.91265 13.8083 9.91265 14.275C9.91265 14.7583 10.0751 15.1625 10.4001 15.4875C10.7251 15.8125 11.1293 15.975 11.6126 15.975H28.5126Z" fill="white"/>
</svg>