<svg width="24" height="24" viewBox="0 0 24 24" fill="none" xmlns="http://www.w3.org/2000/svg">
<path d="M12.0424 14.7355C13.3702 14.7355 14.4937 14.2724 15.4128 13.3462C16.3319 12.42 16.7915 11.3 16.7915 9.98635C16.7915 8.65855 16.3319 7.53509 15.4128 6.61596C14.4937 5.69682 13.3702 5.23725 12.0424 5.23725C10.7287 5.23725 9.60878 5.69682 8.68258 6.61596C7.75638 7.53509 7.29327 8.65855 7.29327 9.98635C7.29327 11.3 7.75638 12.42 8.68258 13.3462C9.60878 14.2724 10.7287 14.7355 12.0424 14.7355ZM2.67135 24.0005C1.95635 24.0005 1.33237 23.734 0.79941 23.201C0.26647 22.6681 0 22.0441 0 21.3291V2.67183C0 1.95684 0.26647 1.33286 0.79941 0.799899C1.33237 0.266959 1.95635 0.000488281 2.67135 0.000488281H21.3286C22.0436 0.000488281 22.6676 0.266959 23.2006 0.799899C23.7335 1.33286 24 1.95684 24 2.67183V21.3291C24 22.0441 23.7335 22.6681 23.2006 23.201C22.6676 23.734 22.0436 24.0005 21.3286 24.0005H2.67135ZM2.67135 21.3291H21.3286V19.845C20.0848 18.6577 18.6767 17.7107 17.1042 17.004C15.5318 16.2973 13.8304 15.9439 12 15.9439C10.1696 15.9439 8.46819 16.2973 6.89575 17.004C5.3233 17.7107 3.91517 18.6577 2.67135 19.845V21.3291Z" fill="#1C1B1F"/>
</svg>
