<svg xmlns="http://www.w3.org/2000/svg" width="40" height="40" viewBox="0 0 40 40" fill="none">
  <mask id="mask0_25_2760" style="mask-type:alpha" maskUnits="userSpaceOnUse" x="7" y="8" width="25" height="24">
    <rect x="7.85571" y="8" width="24" height="24" fill="#D9D9D9"/>
  </mask>
  <g mask="url(#mask0_25_2760)">
    <path d="M25.9086 30.9499C24.8233 30.9499 23.8973 30.5655 23.1306 29.7968C22.3639 29.028 21.9806 28.1124 21.9806 27.0499C21.9806 26.909 21.9931 26.7678 22.0181 26.6264C22.0431 26.4849 22.0639 26.3511 22.0806 26.2249L16.3556 22.8999C16.0056 23.2166 15.6152 23.4624 15.1845 23.6374C14.7537 23.8124 14.2941 23.8999 13.8056 23.8999C12.7292 23.8999 11.806 23.5151 11.0358 22.7455C10.2657 21.9759 9.88062 21.0509 9.88062 19.9705C9.88062 18.8901 10.2657 17.9707 11.0358 17.2124C11.806 16.4541 12.7292 16.0749 13.8056 16.0749C14.2941 16.0749 14.7537 16.1582 15.1845 16.3249C15.6152 16.4916 16.0056 16.7332 16.3556 17.0499L22.0806 13.7244C22.0639 13.6126 22.0431 13.4803 22.0181 13.3277C21.9931 13.1751 21.9806 13.0408 21.9806 12.9249C21.9806 11.8457 22.363 10.9259 23.1277 10.1655C23.8924 9.40511 24.8174 9.0249 25.9027 9.0249C26.988 9.0249 27.9139 9.40554 28.6806 10.1668C29.4473 10.9281 29.8306 11.8489 29.8306 12.9293C29.8306 14.0097 29.4455 14.9291 28.6754 15.6874C27.9053 16.4457 26.982 16.8249 25.9056 16.8249C25.4171 16.8249 24.9575 16.7499 24.5268 16.5999C24.096 16.4499 23.7056 16.2166 23.3556 15.8999L17.6306 19.1749C17.6473 19.3011 17.6681 19.4349 17.6931 19.5764C17.7181 19.7178 17.7306 19.8507 17.7306 19.9749C17.7306 20.0992 17.7181 20.2362 17.6931 20.386C17.6681 20.5357 17.6473 20.6654 17.6306 20.7749L23.3556 24.0499C23.7056 23.7499 24.096 23.5207 24.5268 23.3624C24.9575 23.2041 25.4171 23.1249 25.9056 23.1249C26.982 23.1249 27.9053 23.5097 28.6754 24.2793C29.4455 25.0489 29.8306 25.9739 29.8306 27.0543C29.8306 28.118 29.4483 29.0332 28.6836 29.7999C27.9188 30.5666 26.9938 30.9499 25.9086 30.9499Z" fill="white"/>
  </g>
</svg>