<svg xmlns="http://www.w3.org/2000/svg" width="40" height="40" viewBox="0 0 40 40" fill="none">
  <path d="M11.4529 23.5109C10.5438 23.5109 9.77108 23.1927 9.13472 22.5563C8.49836 21.92 8.18018 21.1473 8.18018 20.2382C8.18018 19.3291 8.49836 18.5563 9.13472 17.92C9.77108 17.2836 10.5438 16.9654 11.4529 16.9654V14.7836C11.4529 14.1836 11.6665 13.67 12.0938 13.2427C12.5211 12.8155 13.0347 12.6018 13.6347 12.6018H16.9074C16.9074 11.6927 17.2256 10.92 17.862 10.2836C18.4984 9.64728 19.2711 9.3291 20.1802 9.3291C21.0893 9.3291 21.862 9.64728 22.4984 10.2836C23.1347 10.92 23.4529 11.6927 23.4529 12.6018H26.7256C27.3256 12.6018 27.8393 12.8155 28.2665 13.2427C28.6938 13.67 28.9074 14.1836 28.9074 14.7836V16.9654C29.8165 16.9654 30.5893 17.2836 31.2256 17.92C31.862 18.5563 32.1802 19.3291 32.1802 20.2382C32.1802 21.1473 31.862 21.92 31.2256 22.5563C30.5893 23.1927 29.8165 23.5109 28.9074 23.5109V27.8745C28.9074 28.4745 28.6938 28.9881 28.2665 29.4154C27.8393 29.8427 27.3256 30.0563 26.7256 30.0563H13.6347C13.0347 30.0563 12.5211 29.8427 12.0938 29.4154C11.6665 28.9881 11.4529 28.4745 11.4529 27.8745V23.5109ZM16.9074 21.3291C17.362 21.3291 17.7484 21.17 18.0665 20.8518C18.3847 20.5336 18.5438 20.1473 18.5438 19.6927C18.5438 19.2382 18.3847 18.8518 18.0665 18.5336C17.7484 18.2154 17.362 18.0563 16.9074 18.0563C16.4529 18.0563 16.0665 18.2154 15.7484 18.5336C15.4302 18.8518 15.2711 19.2382 15.2711 19.6927C15.2711 20.1473 15.4302 20.5336 15.7484 20.8518C16.0665 21.17 16.4529 21.3291 16.9074 21.3291ZM23.4529 21.3291C23.9074 21.3291 24.2938 21.17 24.612 20.8518C24.9302 20.5336 25.0893 20.1473 25.0893 19.6927C25.0893 19.2382 24.9302 18.8518 24.612 18.5336C24.2938 18.2154 23.9074 18.0563 23.4529 18.0563C22.9984 18.0563 22.612 18.2154 22.2938 18.5336C21.9756 18.8518 21.8165 19.2382 21.8165 19.6927C21.8165 20.1473 21.9756 20.5336 22.2938 20.8518C22.612 21.17 22.9984 21.3291 23.4529 21.3291ZM15.8165 25.6927H24.5438V23.5109H15.8165V25.6927Z" fill="white"/>
</svg>