<svg xmlns="http://www.w3.org/2000/svg" width="40" height="40" viewBox="0 0 40 40" fill="none">
  <path d="M7.8418 31.709V28.459C7.8418 27.3923 8.13346 26.4173 8.7168 25.534C9.30013 24.6507 10.1251 23.8757 11.1918 23.209C12.2585 22.5423 13.5335 22.0423 15.0168 21.709C16.5001 21.3757 18.1085 21.209 19.8418 21.209C21.6085 21.209 23.2335 21.3757 24.7168 21.709C26.2001 22.0423 27.4751 22.5423 28.5418 23.209C29.6085 23.8757 30.4251 24.6507 30.9918 25.534C31.5585 26.4173 31.8418 27.3923 31.8418 28.459V31.709H7.8418Z" fill="white"/>
  <path d="M19.8418 19.709C18.1751 19.709 16.7585 19.1257 15.5918 17.959C14.4251 16.7923 13.8418 15.3757 13.8418 13.709C13.8418 12.009 14.4251 10.584 15.5918 9.43398C16.7585 8.28398 18.1751 7.70898 19.8418 7.70898C21.5418 7.70898 22.9668 8.28398 24.1168 9.43398C25.2668 10.584 25.8418 12.009 25.8418 13.709C25.8418 15.3757 25.2668 16.7923 24.1168 17.959C22.9668 19.1257 21.5418 19.709 19.8418 19.709Z" fill="white"/>
</svg>