<svg xmlns="http://www.w3.org/2000/svg" width="144" height="136" viewBox="0 0 144 136" fill="none">
  <path d="M13.0227 71.8651C13.0227 71.8651 10.5579 98.6354 30.5804 120.097C50.6029 141.559 81.2593 147.977 105.995 153.83C130.731 159.683 151.654 148.769 157.205 127.914C162.757 107.059 144.477 97.6112 137.167 71.5951C129.857 45.579 131.774 37.7487 111.755 19.1551C91.7368 0.56127 56.3589 4.01588 35.2159 26.6097C14.0729 49.204 13.0227 71.8651 13.0227 71.8651Z" fill="#86EFAC"/>
  <path opacity="0.7" d="M13.0227 71.8651C13.0227 71.8651 10.5579 98.6354 30.5804 120.097C50.6029 141.559 81.2593 147.977 105.995 153.83C130.731 159.683 151.654 148.769 157.205 127.914C162.757 107.059 144.477 97.6112 137.167 71.5951C129.857 45.579 131.774 37.7487 111.755 19.1551C91.7368 0.56127 56.3589 4.01588 35.2159 26.6097C14.0729 49.204 13.0227 71.8651 13.0227 71.8651Z" fill="white"/>
  <path d="M6.51654 127.87C7.53155 127.796 9.52609 126.687 9.52746 126.687C9.54828 126.675 8.39777 125.594 8.31756 125.534C7.3865 124.841 5.1807 124.049 4.12199 124.803C3.35954 125.346 3.33565 126.408 3.92814 127.083C4.53326 127.773 5.65203 127.933 6.51654 127.87Z" fill="#27272A"/>
  <path d="M10.2923 133.35C11.2138 133.024 12.7401 131.553 12.8613 131.435C13.6766 132.294 14.5831 133.109 15.5459 133.883C16.0957 134.326 16.6636 134.755 17.238 135.179C16.9469 135.024 16.6855 134.889 16.6469 134.874C15.566 134.451 13.2292 134.27 12.4073 135.277C11.8152 136.002 12.0729 137.033 12.8223 137.527C13.5879 138.033 14.7094 137.892 15.5268 137.603C16.3558 137.309 17.6824 136.081 18.0292 135.751C18.2514 135.911 18.4712 136.074 18.694 136.233C19.7626 136.997 20.8326 137.754 21.8589 138.53C22.221 138.803 22.5671 139.085 22.9145 139.366C22.6558 139.229 22.4367 139.117 22.4015 139.103C21.3206 138.68 18.9838 138.499 18.1619 139.506C17.5701 140.231 17.8275 141.262 18.5773 141.756C19.3428 142.262 20.4643 142.121 21.2817 141.832C22.0732 141.552 23.3073 140.429 23.7213 140.039C24.0684 140.338 24.4169 140.636 24.7398 140.941C24.9555 141.155 25.1783 141.345 25.3831 141.571C25.5906 141.791 25.7961 142.008 25.9995 142.224C26.3759 142.653 26.7674 143.094 27.1241 143.522C27.3746 143.817 27.6077 144.104 27.8435 144.392C27.4865 144.116 26.7763 143.59 26.7118 143.553C25.7077 142.971 23.4251 142.438 22.4602 143.309C21.7654 143.936 21.8633 144.994 22.5295 145.597C23.2097 146.212 24.3398 146.243 25.1913 146.081C26.1288 145.902 27.7978 144.735 28.0053 144.588C28.3937 145.066 28.7671 145.534 29.1125 145.982C30.0435 147.183 30.8162 148.253 31.4176 149.114L32.1821 148.712C31.5456 147.839 30.7189 146.741 29.7159 145.504C29.3234 145.017 28.8944 144.505 28.4486 143.983C28.5548 143.859 29.1548 143.149 29.6316 142.415C30.5558 142.743 32.4568 142.695 32.7022 142.686C32.7626 143.299 32.8155 143.896 32.8565 144.46C32.9671 145.931 33.0213 147.22 33.049 148.255L33.8804 147.817C33.8285 146.848 33.7497 145.693 33.6237 144.394C33.565 143.772 33.4896 143.108 33.4056 142.426C33.6459 142.358 35.605 141.785 36.3319 141.164C36.991 140.601 37.6742 139.701 37.6196 138.785C37.566 137.888 36.8026 137.15 35.878 137.3C34.5951 137.508 33.5831 139.622 33.4087 140.769C33.3985 140.837 33.3688 141.584 33.3579 142.055C33.3224 141.777 33.2906 141.507 33.2503 141.221C33.1746 140.655 33.0824 140.093 32.9852 139.487C32.9282 139.196 32.8705 138.903 32.8121 138.606C32.7606 138.311 32.6688 138.006 32.5974 137.702C32.4179 137.001 32.2019 136.3 31.9684 135.599C32.4637 135.531 34.2193 135.266 34.9592 134.807C35.6957 134.351 36.5077 133.564 36.5923 132.651C36.6753 131.756 36.0323 130.91 35.0961 130.919C33.7964 130.93 32.4759 132.866 32.1295 133.974C32.108 134.043 31.9486 134.866 31.8701 135.32C31.7268 134.899 31.5855 134.478 31.4265 134.057C30.9674 132.843 30.465 131.627 29.9695 130.413C29.8172 130.041 29.6705 129.669 29.5217 129.296C29.6981 129.274 31.7916 129.004 32.6207 128.49C33.3575 128.034 34.1691 127.247 34.2538 126.334C34.3367 125.439 33.6937 124.594 32.7575 124.601C31.4579 124.612 30.1374 126.549 29.791 127.657C29.765 127.74 29.5374 128.924 29.4944 129.228C29.1674 128.408 28.8493 127.588 28.5681 126.767C28.179 125.634 27.8596 124.501 27.6316 123.381C27.7138 123.371 29.9002 123.099 30.749 122.572C31.4858 122.116 32.2974 121.329 32.3821 120.416C32.465 119.521 31.822 118.676 30.8858 118.684C29.5862 118.695 28.2657 120.632 27.9193 121.739C27.892 121.826 27.648 123.1 27.6203 123.334C27.607 123.268 27.5858 123.2 27.5732 123.133C27.3449 121.934 27.2742 120.744 27.263 119.626C27.2551 118.977 27.2838 118.355 27.3254 117.751C27.7377 117.742 29.6217 117.681 30.4384 117.292C31.221 116.919 32.1142 116.226 32.2985 115.327C32.479 114.447 31.9329 113.536 31.0015 113.441C29.7084 113.31 28.1834 115.09 27.7176 116.152C27.6923 116.21 27.4998 116.826 27.3657 117.277C27.3886 117.005 27.4073 116.723 27.4343 116.463C27.534 115.485 27.6852 114.596 27.8258 113.81C27.909 113.363 27.9937 112.961 28.0763 112.585C28.4763 112.366 30.0776 111.459 30.6131 110.751C31.1357 110.059 31.609 109.033 31.3589 108.15C31.1138 107.286 30.209 106.729 29.3387 107.074C28.1305 107.553 27.5971 109.835 27.6736 110.993C27.6804 111.093 27.9633 112.647 27.9841 112.636C27.9841 112.636 28.0036 112.625 28.0084 112.622C27.9213 112.982 27.8323 113.369 27.7435 113.793C27.5855 114.578 27.4145 115.466 27.2933 116.446C27.1698 117.424 27.063 118.491 27.052 119.624C27.0394 120.761 27.0841 121.956 27.2896 123.182C27.292 123.196 27.2961 123.21 27.2985 123.224C27.1271 122.884 26.6159 121.95 26.5684 121.883C25.9002 120.934 24.051 119.493 22.8101 119.88C21.9162 120.158 21.5623 121.16 21.9145 121.986C22.2746 122.83 23.2875 123.331 24.1285 123.541C25.077 123.778 27.1616 123.393 27.3275 123.361C27.534 124.527 27.8404 125.707 28.2162 126.884C28.4302 127.557 28.6671 128.228 28.9128 128.898C28.7551 128.609 28.6118 128.351 28.5879 128.317C27.9196 127.368 26.0705 125.928 24.8299 126.314C23.9357 126.593 23.5821 127.595 23.9343 128.421C24.294 129.265 25.3073 129.766 26.1483 129.976C27.0015 130.188 28.7855 129.896 29.2565 129.812C29.3534 130.068 29.4476 130.325 29.5456 130.58C30.0152 131.807 30.4896 133.029 30.9179 134.242C31.0691 134.669 31.2022 135.096 31.337 135.522C31.1964 135.265 31.0763 135.05 31.0544 135.02C30.3862 134.071 28.5374 132.63 27.2964 133.017C26.4026 133.295 26.0486 134.297 26.4009 135.123C26.7606 135.967 27.7739 136.468 28.6149 136.678C29.4292 136.881 31.078 136.625 31.6384 136.529C31.763 136.969 31.8889 137.41 31.9903 137.843C32.0527 138.14 32.1333 138.422 32.1794 138.723C32.2312 139.021 32.2828 139.316 32.3336 139.608C32.4108 140.173 32.494 140.757 32.5558 141.311C32.6015 141.696 32.6381 142.063 32.6759 142.433C32.5306 142.006 32.2282 141.176 32.1951 141.109C31.8517 140.419 31.0254 139.438 30.1326 138.912C30.0824 138.81 30.0237 138.712 29.9551 138.621C29.4155 137.903 28.3712 137.708 27.6831 138.343C26.7278 139.224 27.05 141.546 27.5377 142.599C27.5664 142.661 27.9538 143.3 28.2046 143.699C28.0213 143.487 27.8459 143.279 27.6544 143.063C27.279 142.633 26.892 142.214 26.477 141.763C26.2691 141.552 26.0589 141.339 25.8466 141.124C25.6408 140.906 25.3954 140.702 25.1688 140.488C24.6326 140.003 24.0654 139.537 23.4838 139.081C23.8596 138.751 25.1773 137.562 25.5415 136.771C25.9039 135.983 26.1473 134.88 25.7138 134.071C25.2896 133.279 24.2869 132.928 23.5104 133.452C22.4326 134.178 22.3995 136.522 22.7217 137.637C22.7418 137.706 23.0626 138.48 23.2476 138.902C22.8957 138.63 22.5462 138.357 22.1814 138.094C21.1285 137.334 20.0391 136.598 18.9555 135.858C18.6234 135.632 18.2954 135.403 17.966 135.174C18.1012 135.058 19.6981 133.678 20.106 132.792C20.4684 132.005 20.7118 130.901 20.2783 130.092C19.8541 129.3 18.8514 128.95 18.0749 129.473C16.9971 130.199 16.964 132.543 17.2862 133.658C17.3104 133.742 17.7742 134.855 17.906 135.133C17.1811 134.629 16.463 134.121 15.7756 133.591C14.8261 132.861 13.935 132.092 13.1264 131.283C13.1892 131.229 14.8626 129.796 15.2804 128.889C15.6432 128.101 15.8862 126.998 15.4527 126.189C15.0285 125.397 14.0258 125.047 13.2493 125.57C12.1715 126.296 12.1384 128.64 12.4606 129.755C12.4858 129.843 12.9851 131.04 13.0913 131.251C13.0432 131.202 12.9882 131.158 12.9408 131.109C12.0889 130.235 11.3732 129.281 10.7473 128.355C10.3824 127.818 10.0636 127.284 9.76535 126.757C10.1043 126.522 11.6418 125.431 12.108 124.656C12.5548 123.914 12.9176 122.843 12.5759 121.992C12.2411 121.158 11.2828 120.699 10.4537 121.135C9.30289 121.738 9.01245 124.064 9.2104 125.208C9.22132 125.27 9.4005 125.89 9.53736 126.34C9.40631 126.1 9.26671 125.855 9.14555 125.623C8.68924 124.753 8.32473 123.927 8.00801 123.194C7.83122 122.776 7.67968 122.394 7.5418 122.035C7.75409 121.631 8.58958 119.992 8.64555 119.105C8.69982 118.24 8.52849 117.123 7.83293 116.525C7.1517 115.939 6.08992 115.973 5.55443 116.742C4.81074 117.808 5.62507 120.006 6.32781 120.93C6.38856 121.01 7.48139 122.149 7.49265 122.128C7.49265 122.128 7.50289 122.108 7.50528 122.104C7.63122 122.452 7.77013 122.823 7.9302 123.226C8.23156 123.968 8.57866 124.804 9.01825 125.687C9.45477 126.572 9.95443 127.52 10.5705 128.472C11.1869 129.426 11.8838 130.399 12.7316 131.309C12.7411 131.319 12.7524 131.328 12.7619 131.339C12.4316 131.15 11.4896 130.652 11.4128 130.622C10.3319 130.199 7.99504 130.018 7.1732 131.025C6.58139 131.751 6.83873 132.781 7.58856 133.276C8.35374 133.78 9.47525 133.639 10.2923 133.35Z" fill="#27272A"/>
  <path d="M27.1661 117.562C27.1897 117.564 26.8269 116.027 26.7927 115.933C26.3989 114.841 24.9958 112.964 23.6968 113.009C22.761 113.041 22.1552 113.914 22.2767 114.804C22.4009 115.713 23.2456 116.464 24.0016 116.888C24.8893 117.386 27.1644 117.562 27.1661 117.562Z" fill="#27272A"/>
  <path d="M159.784 133.35C158.863 133.024 157.336 131.553 157.215 131.435C156.4 132.294 155.493 133.109 154.531 133.883C153.981 134.326 153.413 134.755 152.839 135.179C153.13 135.024 153.391 134.889 153.43 134.874C154.511 134.451 156.847 134.27 157.669 135.277C158.261 136.002 158.004 137.033 157.254 137.527C156.489 138.033 155.367 137.892 154.55 137.603C153.721 137.309 152.394 136.081 152.047 135.751C151.825 135.911 151.605 136.074 151.383 136.233C150.314 136.997 149.244 137.754 148.218 138.53C147.856 138.803 147.509 139.085 147.162 139.366C147.421 139.229 147.64 139.117 147.675 139.103C148.756 138.68 151.093 138.499 151.915 139.506C152.506 140.231 152.249 141.262 151.499 141.756C150.734 142.262 149.612 142.121 148.795 141.832C148.004 141.552 146.769 140.429 146.356 140.039C146.008 140.338 145.66 140.636 145.337 140.941C145.121 141.155 144.899 141.345 144.694 141.571C144.486 141.791 144.281 142.008 144.077 142.224C143.701 142.653 143.31 143.094 142.953 143.522C142.702 143.817 142.469 144.104 142.233 144.392C142.59 144.116 143.301 143.59 143.365 143.553C144.369 142.971 146.652 142.438 147.617 143.309C148.312 143.936 148.214 144.994 147.547 145.597C146.867 146.212 145.737 146.243 144.886 146.081C143.948 145.902 142.279 144.735 142.072 144.588C141.683 145.066 141.31 145.534 140.964 145.982C140.033 147.183 139.261 148.253 138.659 149.114L137.895 148.712C138.531 147.839 139.358 146.741 140.361 145.504C140.753 145.017 141.182 144.505 141.628 143.983C141.522 143.859 140.922 143.149 140.445 142.415C139.521 142.743 137.62 142.695 137.374 142.686C137.314 143.299 137.261 143.896 137.22 144.46C137.11 145.931 137.055 147.22 137.028 148.255L136.196 147.817C136.248 146.848 136.327 145.693 136.453 144.394C136.512 143.772 136.587 143.108 136.671 142.426C136.431 142.358 134.472 141.785 133.745 141.164C133.086 140.601 132.402 139.701 132.457 138.785C132.511 137.888 133.274 137.15 134.199 137.3C135.482 137.508 136.493 139.622 136.668 140.769C136.678 140.837 136.708 141.584 136.719 142.055C136.754 141.777 136.786 141.507 136.826 141.221C136.902 140.655 136.994 140.093 137.091 139.487C137.148 139.196 137.206 138.903 137.265 138.606C137.316 138.311 137.408 138.006 137.479 137.702C137.659 137.001 137.875 136.3 138.108 135.599C137.613 135.531 135.858 135.266 135.118 134.807C134.381 134.351 133.569 133.564 133.485 132.651C133.402 131.756 134.045 130.91 134.981 130.919C136.28 130.93 137.601 132.866 137.947 133.974C137.969 134.043 138.128 134.866 138.207 135.32C138.35 134.899 138.491 134.478 138.65 134.057C139.109 132.843 139.612 131.627 140.107 130.413C140.26 130.041 140.406 129.669 140.555 129.296C140.379 129.274 138.285 129.004 137.456 128.49C136.719 128.034 135.908 127.247 135.823 126.334C135.74 125.439 136.383 124.594 137.319 124.601C138.619 124.612 139.94 126.549 140.286 127.657C140.312 127.74 140.539 128.924 140.583 129.228C140.909 128.408 141.228 127.588 141.509 126.767C141.898 125.634 142.217 124.501 142.445 123.381C142.363 123.371 140.177 123.099 139.328 122.572C138.591 122.116 137.779 121.329 137.695 120.416C137.612 119.521 138.255 118.676 139.191 118.684C140.491 118.695 141.811 120.632 142.158 121.739C142.185 121.826 142.429 123.1 142.457 123.334C142.47 123.268 142.491 123.2 142.504 123.133C142.732 121.934 142.803 120.744 142.814 119.626C142.822 118.977 142.793 118.355 142.751 117.751C142.339 117.742 140.455 117.681 139.639 117.292C138.856 116.919 137.963 116.226 137.778 115.327C137.598 114.447 138.144 113.536 139.075 113.441C140.369 113.31 141.893 115.09 142.359 116.152C142.385 116.21 142.577 116.826 142.711 117.277C142.688 117.005 142.67 116.723 142.643 116.463C142.543 115.485 142.392 114.596 142.251 113.81C142.168 113.363 142.083 112.961 142.001 112.585C141.601 112.366 140 111.459 139.464 110.751C138.941 110.059 138.468 109.033 138.718 108.15C138.963 107.286 139.868 106.729 140.738 107.074C141.946 107.553 142.48 109.835 142.403 110.993C142.397 111.093 142.114 112.647 142.093 112.636C142.093 112.636 142.073 112.625 142.069 112.622C142.156 112.982 142.245 113.369 142.334 113.793C142.491 114.578 142.663 115.466 142.784 116.446C142.907 117.424 143.014 118.491 143.025 119.624C143.038 120.761 142.993 121.956 142.788 123.182C142.785 123.196 142.781 123.21 142.779 123.224C142.95 122.884 143.461 121.95 143.509 121.883C144.177 120.934 146.026 119.493 147.267 119.88C148.161 120.158 148.515 121.16 148.163 121.986C147.803 122.83 146.79 123.331 145.949 123.541C145 123.778 142.916 123.393 142.75 123.361C142.543 124.527 142.237 125.707 141.861 126.884C141.647 127.557 141.41 128.228 141.164 128.898C141.322 128.609 141.465 128.351 141.489 128.317C142.158 127.368 144.007 125.928 145.247 126.314C146.142 126.593 146.495 127.595 146.143 128.421C145.783 129.265 144.77 129.766 143.929 129.976C143.076 130.188 141.292 129.896 140.821 129.812C140.724 130.068 140.63 130.325 140.532 130.58C140.062 131.807 139.588 133.029 139.159 134.242C139.008 134.669 138.875 135.096 138.74 135.522C138.881 135.265 139.001 135.05 139.023 135.02C139.691 134.071 141.54 132.63 142.781 133.017C143.675 133.295 144.029 134.297 143.676 135.123C143.317 135.967 142.303 136.468 141.462 136.678C140.648 136.881 138.999 136.625 138.439 136.529C138.314 136.969 138.188 137.41 138.087 137.843C138.025 138.14 137.944 138.422 137.898 138.723C137.846 139.021 137.794 139.316 137.744 139.608C137.666 140.173 137.583 140.757 137.521 141.311C137.476 141.696 137.439 142.063 137.401 142.433C137.547 142.006 137.849 141.176 137.882 141.109C138.226 140.419 139.052 139.438 139.945 138.912C139.995 138.81 140.054 138.712 140.122 138.621C140.662 137.903 141.706 137.708 142.394 138.343C143.349 139.224 143.027 141.546 142.54 142.599C142.511 142.661 142.123 143.3 141.873 143.699C142.056 143.487 142.231 143.279 142.423 143.063C142.798 142.633 143.185 142.214 143.601 141.763C143.808 141.552 144.019 141.339 144.231 141.124C144.437 140.906 144.682 140.702 144.909 140.488C145.445 140.003 146.012 139.537 146.594 139.081C146.218 138.751 144.9 137.562 144.536 136.771C144.174 135.983 143.93 134.88 144.364 134.071C144.788 133.279 145.791 132.928 146.567 133.452C147.645 134.178 147.678 136.522 147.356 137.637C147.336 137.706 147.015 138.48 146.83 138.902C147.182 138.63 147.531 138.357 147.896 138.094C148.949 137.334 150.039 136.598 151.122 135.858C151.454 135.632 151.782 135.403 152.112 135.174C151.976 135.058 150.379 133.678 149.972 132.792C149.609 132.005 149.366 130.901 149.799 130.092C150.223 129.3 151.226 128.95 152.003 129.473C153.08 130.199 153.114 132.543 152.791 133.658C152.767 133.742 152.303 134.855 152.172 135.133C152.897 134.629 153.615 134.121 154.302 133.591C155.251 132.861 156.143 132.092 156.951 131.283C156.888 131.229 155.215 129.796 154.797 128.889C154.434 128.101 154.191 126.998 154.625 126.189C155.049 125.397 156.052 125.047 156.828 125.57C157.906 126.296 157.939 128.64 157.617 129.755C157.592 129.843 157.092 131.04 156.986 131.251C157.034 131.202 157.089 131.158 157.136 131.109C157.988 130.235 158.704 129.281 159.33 128.355C159.695 127.818 160.014 127.284 160.312 126.757C159.973 126.522 158.436 125.431 157.97 124.656C157.523 123.914 157.16 122.843 157.502 121.992C157.836 121.158 158.795 120.699 159.624 121.135C160.775 121.738 161.065 124.064 160.867 125.208C160.856 125.27 160.677 125.89 160.54 126.34C160.671 126.1 160.811 125.855 160.932 125.623C161.388 124.753 161.753 123.927 162.07 123.194C162.246 122.776 162.398 122.394 162.536 122.035C162.324 121.631 161.488 119.992 161.432 119.105C161.378 118.24 161.549 117.123 162.245 116.525C162.926 115.939 163.988 115.973 164.523 116.742C165.267 117.808 164.453 120.006 163.75 120.93C163.689 121.01 162.596 122.149 162.585 122.128C162.585 122.128 162.575 122.108 162.572 122.104C162.446 122.452 162.307 122.823 162.147 123.226C161.846 123.968 161.499 124.804 161.059 125.687C160.623 126.572 160.123 127.52 159.507 128.472C158.891 129.426 158.194 130.399 157.346 131.309C157.336 131.319 157.325 131.328 157.316 131.339C157.646 131.15 158.588 130.652 158.665 130.622C159.746 130.199 162.083 130.018 162.904 131.025C163.496 131.751 163.239 132.781 162.489 133.276C161.723 133.78 160.602 133.639 159.784 133.35Z" fill="#27272A"/>
  <path d="M142.91 117.562C142.887 117.564 143.25 116.027 143.284 115.933C143.678 114.841 145.081 112.964 146.38 113.009C147.315 113.041 147.921 113.914 147.799 114.804C147.675 115.713 146.83 116.464 146.074 116.888C145.187 117.386 142.912 117.562 142.91 117.562Z" fill="#27272A"/>
  <path d="M31.4761 68.4646L31.7624 68.6506" stroke="#263238" stroke-width="0.117016" stroke-miterlimit="10"/>
  <path d="M32.3337 69.0222L84.631 103.028" stroke="#263238" stroke-width="0.117016" stroke-miterlimit="10" stroke-dasharray="0.23 0.23"/>
  <path d="M84.917 103.214L85.203 103.4L85.017 103.114" stroke="#263238" stroke-width="0.117016" stroke-miterlimit="10"/>
  <path d="M84.6476 102.547L39.7869 33.5698" stroke="#263238" stroke-width="0.117016" stroke-miterlimit="10" stroke-dasharray="0.23 0.23"/>
  <path d="M39.6024 33.2858L39.416 32.9998" stroke="#263238" stroke-width="0.117016" stroke-miterlimit="10"/>
  <path d="M138.93 68.4646L138.644 68.6506" stroke="#263238" stroke-width="0.117016" stroke-miterlimit="10"/>
  <path d="M138.072 69.0222L85.7749 103.028" stroke="#263238" stroke-width="0.117016" stroke-miterlimit="10" stroke-dasharray="0.23 0.23"/>
  <path d="M85.4892 103.214L85.2029 103.4L85.3892 103.114" stroke="#263238" stroke-width="0.117016" stroke-miterlimit="10"/>
  <path d="M85.7581 102.547L130.619 33.5698" stroke="#263238" stroke-width="0.117016" stroke-miterlimit="10" stroke-dasharray="0.23 0.23"/>
  <path d="M130.804 33.2858L130.99 32.9998" stroke="#263238" stroke-width="0.117016" stroke-miterlimit="10"/>
  <path d="M85.2029 22.4133V22.7546" stroke="#263238" stroke-width="0.117016" stroke-miterlimit="10"/>
  <path d="M85.2029 23.4409V102.716" stroke="#263238" stroke-width="0.117016" stroke-miterlimit="10" stroke-dasharray="0.24 0.24"/>
  <path d="M85.2029 103.059V103.4" stroke="#263238" stroke-width="0.117016" stroke-miterlimit="10"/>
  <path d="M85.84 31.3668C91.6369 31.3668 96.3363 26.6674 96.3363 20.8705C96.3363 15.0736 91.6369 10.3743 85.84 10.3743C80.0431 10.3743 75.3438 15.0736 75.3438 20.8705C75.3438 26.6674 80.0431 31.3668 85.84 31.3668Z" fill="#27272A" stroke="#263238" stroke-width="0.234032" stroke-miterlimit="10"/>
  <path d="M85.8401 20.8704L94.6729 15.2032C93.3807 13.1933 91.4227 11.654 89.1094 10.896L85.8401 20.8704Z" fill="#86EFAC" stroke="#263238" stroke-width="0.117016" stroke-miterlimit="10"/>
  <path d="M85.8401 20.8705L90.7995 30.1224C94.095 28.3521 96.3363 24.8736 96.3363 20.8705C96.3363 18.7821 95.7244 16.8381 94.6725 15.2036L85.8401 20.8705Z" fill="white" stroke="#263238" stroke-width="0.117016" stroke-miterlimit="10"/>
  <path d="M136.655 40.3528C140.752 36.2558 140.752 29.6133 136.655 25.5163C132.558 21.4193 125.916 21.4193 121.819 25.5163C117.722 29.6133 117.722 36.2558 121.819 40.3528C125.916 44.4499 132.558 44.4498 136.655 40.3528Z" stroke="#263238" stroke-width="0.117016" stroke-miterlimit="10"/>
  <path d="M129.238 42.0282C134.261 42.0282 138.332 37.9566 138.332 32.934C138.332 27.9115 134.261 23.8398 129.238 23.8398C124.216 23.8398 120.144 27.9115 120.144 32.934C120.144 37.9566 124.216 42.0282 129.238 42.0282Z" fill="#27272A"/>
  <path d="M134.472 32.934L125.663 27.8477V38.02L134.472 32.934Z" fill="white"/>
  <path d="M154.913 69.7074C156.321 63.8274 152.696 57.9191 146.816 56.5109C140.936 55.1028 135.028 58.7279 133.62 64.6079C132.212 70.4879 135.837 76.3962 141.717 77.8044C147.597 79.2126 153.505 75.5874 154.913 69.7074Z" fill="#27272A"/>
  <path d="M151.874 68.9762C152.876 64.7753 150.283 60.5576 146.082 59.5557C141.882 58.5537 137.664 61.1469 136.662 65.3478C135.66 69.5486 138.253 73.7663 142.454 74.7683C146.655 75.7702 150.873 73.177 151.874 68.9762Z" fill="white"/>
  <path d="M148.834 68.2499C149.433 65.7289 147.874 63.1998 145.353 62.6009C142.832 62.0021 140.303 63.5603 139.704 66.0813C139.106 68.6023 140.664 71.1314 143.185 71.7303C145.706 72.3291 148.235 70.7709 148.834 68.2499Z" fill="#27272A"/>
  <path d="M146.735 67.7424C147.056 66.3847 146.216 65.0234 144.859 64.7018C143.501 64.3802 142.14 65.2201 141.818 66.5778C141.497 67.9355 142.336 69.2968 143.694 69.6184C145.052 69.94 146.413 69.1001 146.735 67.7424Z" fill="white"/>
  <path d="M158.227 61.9124L156.834 61.3676L157.442 61.0717C157.586 61.0018 157.646 60.8281 157.575 60.684C157.505 60.5403 157.332 60.4799 157.188 60.5502L156.747 60.7649L157.447 59.2485L154.848 60.4178L154.471 61.8734L144.146 66.9018C144.002 66.9717 143.942 67.1455 144.012 67.2895C144.062 67.3926 144.165 67.4526 144.273 67.4526C144.315 67.4526 144.358 67.4434 144.399 67.4233L154.758 62.3786L155.887 63.0168L158.227 61.9124Z" fill="#27272A"/>
  <path d="M40.3323 43.425C46.378 43.425 51.279 38.524 51.279 32.4783C51.279 26.4325 46.378 21.5315 40.3323 21.5315C34.2865 21.5315 29.3855 26.4325 29.3855 32.4783C29.3855 38.524 34.2865 43.425 40.3323 43.425Z" fill="white" stroke="#263238" stroke-width="0.234032" stroke-miterlimit="10"/>
  <path d="M40.3322 43.425C44.7158 43.425 48.2694 38.524 48.2694 32.4783C48.2694 26.4325 44.7158 21.5315 40.3322 21.5315C35.9486 21.5315 32.395 26.4325 32.395 32.4783C32.395 38.524 35.9486 43.425 40.3322 43.425Z" fill="white" stroke="#263238" stroke-width="0.117016" stroke-miterlimit="10"/>
  <path d="M40.3324 43.425C42.1983 43.425 43.7109 38.524 43.7109 32.4783C43.7109 26.4325 42.1983 21.5315 40.3324 21.5315C38.4665 21.5315 36.9539 26.4325 36.9539 32.4783C36.9539 38.524 38.4665 43.425 40.3324 43.425Z" fill="white" stroke="#263238" stroke-width="0.117016" stroke-miterlimit="10"/>
  <path d="M34.532 23.2329H46.3252" stroke="#263238" stroke-width="0.117016" stroke-miterlimit="10"/>
  <path d="M30.5654 27.5212H50.0777" stroke="#263238" stroke-width="0.117016" stroke-miterlimit="10"/>
  <path d="M29.4395 31.8098H51.2569" stroke="#263238" stroke-width="0.117016" stroke-miterlimit="10"/>
  <path d="M29.9221 36.0981H50.6136" stroke="#263238" stroke-width="0.117016" stroke-miterlimit="10"/>
  <path d="M32.8704 40.3865H47.9871" stroke="#263238" stroke-width="0.117016" stroke-miterlimit="10"/>
  <path d="M26.0044 78.1106C32.0501 78.1106 36.9511 73.2095 36.9511 67.1638C36.9511 61.1181 32.0501 56.217 26.0044 56.217C19.9587 56.217 15.0576 61.1181 15.0576 67.1638C15.0576 73.2095 19.9587 78.1106 26.0044 78.1106Z" fill="#27272A" stroke="#263238" stroke-width="0.234032" stroke-miterlimit="10"/>
  <path d="M32.9402 61.9902H18.4231V73.6039H32.9402V61.9902Z" fill="white" stroke="#263238" stroke-width="0.234032" stroke-miterlimit="10"/>
  <path d="M33.8475 61.9902H17.5161V66.7083H33.8475V61.9902Z" fill="white" stroke="#263238" stroke-width="0.234032" stroke-miterlimit="10"/>
  <path d="M25.6669 61.8735C25.6669 61.8735 22.2409 57.8765 21.6699 58.0666C21.099 58.2571 19.5761 60.9216 20.4327 61.2073C21.2891 61.4929 25.6669 61.8735 25.6669 61.8735Z" fill="#86EFAC"/>
  <path d="M25.6968 61.8735C25.6968 61.8735 29.1227 57.8765 29.6937 58.0666C30.2647 58.2571 31.7872 60.9216 30.9309 61.2073C30.0746 61.4929 25.6968 61.8735 25.6968 61.8735Z" fill="#86EFAC"/>
  <path d="M26.7135 70.153L25.6869 68.3674L24.6196 70.153V62.1592H26.7135V70.153Z" fill="#86EFAC"/>
  <path d="M30.8511 97.3186L85.1644 66.7466L140.811 97.3186V141.636H31.5173L30.8511 97.3186Z" fill="#27272A" stroke="#263238" stroke-width="0.117016" stroke-miterlimit="10" stroke-linecap="round" stroke-linejoin="round"/>
  <path d="M126.483 74.9937H45.1792V147.301H126.483V74.9937Z" fill="white" stroke="#263238" stroke-width="0.117016" stroke-miterlimit="10"/>
  <path d="M54.509 87.6558H116.153" stroke="#263238" stroke-width="0.117016" stroke-miterlimit="10"/>
  <path d="M54.509 93.9863H116.153" stroke="#263238" stroke-width="0.117016" stroke-miterlimit="10"/>
  <path d="M54.509 100.317H116.153" stroke="#263238" stroke-width="0.117016" stroke-miterlimit="10"/>
  <path d="M54.509 106.648H116.153" stroke="#263238" stroke-width="0.117016" stroke-miterlimit="10"/>
  <path d="M54.509 112.98H116.153" stroke="#263238" stroke-width="0.117016" stroke-miterlimit="10"/>
  <path d="M54.509 119.311H116.153" stroke="#263238" stroke-width="0.117016" stroke-miterlimit="10"/>
  <path d="M140.811 158.296H30.8511V97.3186L85.831 134.638L140.811 97.3186V158.296Z" fill="#86EFAC" stroke="#263238" stroke-width="0.117016" stroke-miterlimit="10"/>
  <path d="M30.8511 158.297L70.8289 124.437" stroke="#263238" stroke-width="0.117016" stroke-miterlimit="10"/>
  <path d="M140.636 158.297L100.953 124.384" stroke="#263238" stroke-width="0.117016" stroke-miterlimit="10"/>
  <path d="M97.7253 54.8361C97.7253 54.8361 97.3113 56.7686 97.8632 57.3897C98.4151 58.0109 100.486 60.2194 100.486 60.5645C100.486 60.9095 99.7956 70.8474 99.7956 70.8474L96.6209 68.5699L94.6885 74.5051C94.6885 74.5051 99.5195 76.5754 101.797 76.9894C104.074 77.4034 104.488 76.7822 104.488 74.988C104.488 73.1938 102.694 59.46 102.694 59.46C102.694 59.46 103.246 56.2853 103.246 55.7334C103.246 55.1812 103.454 54.9054 102.97 54.6293C102.487 54.3532 98.5537 53.9392 98.5537 53.9392C98.5537 53.9392 97.7253 54.2839 97.7253 54.8361Z" fill="white" stroke="#263238" stroke-width="0.117016" stroke-miterlimit="10" stroke-linecap="round" stroke-linejoin="round"/>
  <path d="M96.7 69.406L95.6512 74.7251L94.6887 74.505L96.7 69.406Z" fill="#27272A" stroke="#263238" stroke-width="0.117016" stroke-miterlimit="10" stroke-linecap="round" stroke-linejoin="round"/>
  <path d="M104.451 56.3869L96.6333 55.3344V53.3866C96.6333 53.2026 96.7824 53.0535 96.9664 53.0535C97.1507 53.0535 97.2995 53.2026 97.2995 53.3866V54.7514L103.836 55.6313L103.949 54.0528C103.962 53.8695 104.115 53.7326 104.305 53.7442C104.489 53.7576 104.627 53.9169 104.614 54.1006L104.451 56.3869Z" fill="#27272A"/>
  <path d="M98.4155 55.7333L102.694 56.1473L102.97 54.6288L98.5534 53.9387L98.4155 55.7333Z" fill="white" stroke="#263238" stroke-width="0.117016" stroke-miterlimit="10" stroke-linecap="round" stroke-linejoin="round"/>
  <path d="M97.6563 55.9402C97.6563 55.9402 97.6562 54.2149 97.8634 54.0767C98.0706 53.9388 101.038 54.1457 101.038 54.5597C101.038 54.9736 101.038 55.1808 100.693 55.1808C100.348 55.1808 99.658 55.2498 99.658 55.2498C99.658 55.2498 101.245 56.6989 100.762 58.0102" fill="white"/>
  <path d="M97.6563 55.9402C97.6563 55.9402 97.6562 54.2149 97.8634 54.0767C98.0706 53.9388 101.038 54.1457 101.038 54.5597C101.038 54.9736 101.038 55.1808 100.693 55.1808C100.348 55.1808 99.658 55.2498 99.658 55.2498C99.658 55.2498 101.245 56.6989 100.762 58.0102" stroke="#263238" stroke-width="0.117016" stroke-miterlimit="10" stroke-linecap="round" stroke-linejoin="round"/>
  <path d="M99.7956 70.8472L99.5195 73.8837" stroke="#263238" stroke-width="0.117016" stroke-miterlimit="10" stroke-linecap="round" stroke-linejoin="round"/>
  <path d="M64.7483 69.5208C64.7483 69.5208 54.9937 77.1358 55.2453 77.9539C55.4971 78.772 62.7343 85.6948 65.1258 87.3941C67.5173 89.0935 68.8388 89.8484 68.8388 89.8484L70.3494 90.7924C70.3494 90.7924 69.72 91.7993 70.0975 91.9883C70.475 92.1774 71.8596 92.8692 72.0483 92.4918C72.2371 92.1143 73.2442 89.2822 73.1183 88.5897C72.9924 87.8976 69.3422 87.331 69.0907 87.0791C68.8388 86.8272 62.8603 77.5132 62.8603 77.5132L67.5173 73.8631L64.7483 69.5208Z" fill="white" stroke="#263238" stroke-width="0.117016" stroke-miterlimit="10" stroke-linecap="round" stroke-linejoin="round"/>
  <path d="M64.5806 69.7739L66.3505 74.5784L67.5178 73.863L64.5806 69.7739Z" fill="#27272A" stroke="#263238" stroke-width="0.117016" stroke-miterlimit="10" stroke-linecap="round" stroke-linejoin="round"/>
  <path d="M70.3496 90.7925C70.3496 90.7925 70.7902 91.7365 71.5452 91.7993" stroke="#263238" stroke-width="0.117016" stroke-miterlimit="10" stroke-linecap="round" stroke-linejoin="round"/>
  <path d="M62.8605 77.5133L61.6018 75.3105" stroke="#263238" stroke-width="0.117016" stroke-miterlimit="10" stroke-linecap="round" stroke-linejoin="round"/>
  <path d="M73.3365 87.3824C73.3365 87.3824 70.671 98.2674 69.6713 107.486C68.6716 116.705 67.1167 146.916 67.1167 146.916H79.3345C79.3345 146.916 82.9996 116.261 83.5553 110.818C84.1106 105.376 84.1106 101.933 84.1106 101.933L90.9969 146.916H105.547C105.547 146.916 99.9935 118.371 97.772 105.265C95.5505 92.1585 92.4406 87.0493 92.4406 87.0493L73.3365 87.3824Z" fill="#A3A3A3" stroke="#263238" stroke-width="0.117016" stroke-miterlimit="10" stroke-linecap="round" stroke-linejoin="round"/>
  <path d="M83.7771 88.16C83.6717 88.476 80.7782 92.8248 81.6669 93.1583C82.5556 93.4914 84.2215 93.4914 84.2215 92.603C84.2215 91.7142 84.2215 89.0487 84.2215 89.0487C84.2215 89.0487 84.4437 94.047 85.4434 93.8248C86.443 93.6026 87.7758 93.8248 87.4427 92.7142C87.1096 91.6036 84.555 88.0494 84.555 88.0494C84.555 88.0494 84.1103 87.1603 83.7771 88.16Z" fill="#A3A3A3" stroke="#263238" stroke-width="0.117016" stroke-miterlimit="10" stroke-linecap="round" stroke-linejoin="round"/>
  <path d="M84.2349 88.5244C84.2349 88.5244 86.7547 92.1012 86.511 92.4261C86.2669 92.7514 85.942 93.0763 85.698 92.5886C85.4543 92.1012 84.2349 88.5244 84.2349 88.5244Z" stroke="#263238" stroke-width="0.117016" stroke-miterlimit="10"/>
  <path d="M84.1537 88.1182C84.1537 88.1182 82.2841 92.1014 82.5278 92.2639C82.7718 92.4264 83.3407 92.4264 83.5032 91.8574C83.666 91.2885 84.1537 88.1182 84.1537 88.1182Z" stroke="#263238" stroke-width="0.117016" stroke-miterlimit="10"/>
  <path d="M91.7451 99.4695C91.8478 100.035 91.9335 100.566 91.9963 101.044" stroke="#263238" stroke-width="0.117016" stroke-miterlimit="10" stroke-linecap="round" stroke-linejoin="round"/>
  <path d="M89.1084 88.4934C89.1084 88.4934 90.4944 93.4432 91.3838 97.6449" stroke="#263238" stroke-width="0.117016" stroke-miterlimit="10" stroke-linecap="round" stroke-linejoin="round"/>
  <path d="M88.1089 88.4934C88.1089 88.4934 88.9976 94.7132 89.4417 96.3794" stroke="#263238" stroke-width="0.117016" stroke-miterlimit="10" stroke-linecap="round" stroke-linejoin="round"/>
  <path d="M76.0204 97.1057C75.974 97.5361 75.9303 97.9293 75.8914 98.2675" stroke="#263238" stroke-width="0.117016" stroke-miterlimit="10" stroke-linecap="round" stroke-linejoin="round"/>
  <path d="M76.8909 88.4934C76.8909 88.4934 76.523 92.2951 76.197 95.4337" stroke="#263238" stroke-width="0.117016" stroke-miterlimit="10" stroke-linecap="round" stroke-linejoin="round"/>
  <path d="M76.0025 88.7156L75.5581 94.0466" stroke="#263238" stroke-width="0.117016" stroke-miterlimit="10" stroke-linecap="round" stroke-linejoin="round"/>
  <path d="M83.7844 43.1731C83.7844 43.1731 87.9253 43.5871 86.9591 45.7267C85.9929 47.8663 85.0267 48.2803 84.8195 48.2803C84.6124 48.2803 82.9561 45.7267 82.9561 45.7267L83.7844 43.1731Z" fill="#27272A" stroke="#263238" stroke-width="0.117016" stroke-miterlimit="10" stroke-linecap="round" stroke-linejoin="round"/>
  <path d="M83.3016 45.1745C83.3016 45.1745 84.8889 46.0717 85.3719 47.728C85.8548 49.3844 87.0971 49.8673 87.4422 49.7983C87.7872 49.7294 88.2702 50.7646 87.8562 51.4547C87.4422 52.1448 87.4422 52.1448 87.4422 52.1448C87.4422 52.1448 87.7872 56.8376 87.3732 57.4588C86.9592 58.0799 84.4057 57.7349 84.4057 57.7349C84.4057 57.7349 83.8534 59.9434 84.3367 61.3236C84.8197 62.7038 86.2691 63.3939 86.821 63.3939C87.3729 63.3939 88.5463 62.7038 90.1336 63.5318C91.721 64.3598 97.035 68.3629 97.035 68.3629L94.2053 76.0926L91.1688 74.5052L93.3081 87.6868L72.6039 88.1697C72.6039 88.1697 72.8111 78.7837 72.2589 77.0584C71.7067 75.3332 70.8097 73.7458 70.8097 73.7458L68.1872 75.8161L64.5295 69.467C64.5295 69.467 69.9125 64.084 72.0521 63.6007C74.1913 63.1178 76.7449 63.7386 77.5732 62.7035C78.4012 61.6683 77.7111 56.7683 77.7111 56.7683C77.7111 56.7683 75.7098 56.0782 74.5364 52.5584C73.363 49.0386 77.3661 45.3809 77.3661 45.3809C77.3661 45.3809 79.1606 43.5181 83.3016 45.1745Z" fill="white" stroke="#263238" stroke-width="0.117016" stroke-miterlimit="10" stroke-linecap="round" stroke-linejoin="round"/>
  <path d="M84.4056 57.735L82.54 57.4189L84.0383 59.1422L84.4056 57.735Z" fill="#27272A" stroke="#263238" stroke-width="0.117016" stroke-miterlimit="10" stroke-linecap="round" stroke-linejoin="round"/>
  <path d="M83.5298 48.9101C83.5298 48.9101 83.5298 47.5989 84.7032 47.5989" stroke="#263238" stroke-width="0.234032" stroke-miterlimit="10" stroke-linecap="round" stroke-linejoin="round"/>
  <path d="M86.614 53.6629L84.1987 52.4895C84.1987 52.4895 83.9915 54.9741 84.8888 54.9049C85.786 54.8363 86.614 53.6629 86.614 53.6629Z" fill="#27272A" stroke="#263238" stroke-width="0.117016" stroke-miterlimit="10" stroke-linecap="round" stroke-linejoin="round"/>
  <path d="M84.2495 50.1916C84.2495 50.1916 85.0273 49.3493 85.6751 50.0619" stroke="#263238" stroke-width="0.117016" stroke-miterlimit="10" stroke-linecap="round" stroke-linejoin="round"/>
  <path d="M84.1806 53.2782L86.3526 53.984C86.5157 53.8011 86.614 53.6629 86.614 53.6629L84.1986 52.4895C84.1986 52.4895 84.1693 52.8424 84.1806 53.2782Z" fill="white" stroke="#263238" stroke-width="0.117016" stroke-miterlimit="10" stroke-linecap="round" stroke-linejoin="round"/>
  <path d="M70.6721 48.142C70.6721 48.142 69.1537 45.0362 67.0145 45.3815C64.8752 45.7266 63.2186 48.073 63.9087 51.3856C63.9087 51.3856 64.2537 52.2829 64.5298 53.042C64.5298 53.042 61.8383 52.214 60.3889 54.0082C58.9397 55.8024 60.0438 57.6659 61.7001 58.5631C63.3564 59.4604 64.3226 59.3911 64.3226 59.3911C64.3226 59.3911 60.665 60.4952 61.9762 61.8754C63.2875 63.2556 67.2902 62.3587 66.4622 61.1853C65.6339 60.0119 65.0131 60.1502 65.0131 60.1502C65.0131 60.1502 68.3257 58.9078 67.9807 58.0106C67.6356 57.1133 65.9793 56.4232 65.9793 56.4232C65.9793 56.4232 69.1541 57.5273 70.8793 56.4921C72.6046 55.457 71.0865 51.0399 71.0865 51.0399L70.6721 48.142Z" fill="#27272A" stroke="#263238" stroke-width="0.117016" stroke-miterlimit="10" stroke-linecap="round" stroke-linejoin="round"/>
  <path d="M84.5438 41.6545C84.5438 41.6545 85.096 43.5869 84.1298 45.2432C83.1636 46.8995 81.0933 49.7292 80.8172 52.9036C80.5411 56.0783 81.4383 60.0121 81.9906 61.3234C82.5428 62.6347 81.3005 62.9108 80.4032 62.8418C79.5059 62.7729 79.1609 62.2207 79.1609 60.9784C79.1609 59.736 78.8848 57.5275 78.8848 57.5275C78.8848 57.5275 75.365 57.1824 73.7087 56.2162C72.0523 55.25 69.637 51.9374 70.6721 48.1418C71.7073 44.3459 74.468 43.2418 76.1244 42.5517C77.7807 41.8616 80.0581 41.9306 81.6455 41.5855C83.2325 41.2405 84.4749 40.8261 84.5438 41.6545Z" fill="#27272A" stroke="#263238" stroke-width="0.117016" stroke-miterlimit="10" stroke-linecap="round" stroke-linejoin="round"/>
  <path d="M79.5054 51.3163L78.8842 53.8006C78.8842 53.8006 77.573 53.1794 77.3658 52.0753C77.1586 50.9712 78.746 50.419 79.8501 51.3852" fill="white"/>
  <path d="M79.5054 51.3163L78.8842 53.8006C78.8842 53.8006 77.573 53.1794 77.3658 52.0753C77.1586 50.9712 78.746 50.419 79.8501 51.3852" stroke="#263238" stroke-width="0.117016" stroke-miterlimit="10" stroke-linecap="round" stroke-linejoin="round"/>
  <path d="M99.6575 55.25L98.7603 55.3189" stroke="#263238" stroke-width="0.117016" stroke-miterlimit="10" stroke-linecap="round" stroke-linejoin="round"/>
  <path d="M93.2028 53.2573L116.204 56.4747L113.079 39.459L92.4922 49.3703L93.2028 53.2573Z" fill="#86EFAC" stroke="#263238" stroke-width="0.117016" stroke-miterlimit="10" stroke-linecap="round" stroke-linejoin="round"/>
  <path d="M92.4903 49.3749L89.0715 49.9998L89.7786 53.8684L93.1974 53.2435L92.4903 49.3749Z" fill="#86EFAC" stroke="#263238" stroke-width="0.117016" stroke-miterlimit="10" stroke-linecap="round" stroke-linejoin="round"/>
  <path d="M97.0352 68.3628C97.0352 68.3628 91.7212 64.36 90.1338 63.5317C88.5683 62.715 87.4065 63.374 86.8454 63.3921C85.9734 64.6423 83.9437 66.7552 80.1959 66.7064C75.6563 66.6474 74.3911 64.1225 74.1188 63.387C73.4331 63.4064 72.7225 63.4494 72.0526 63.6006C69.913 64.0836 64.53 69.4668 64.53 69.4668L68.1877 75.816L70.8102 73.7457C70.8102 73.7457 71.7075 75.3331 72.2594 77.0583C72.8116 78.7836 72.6044 88.1696 72.6044 88.1696L93.3085 87.6867L91.1693 74.5051L94.2058 76.0925L97.0352 68.3628Z" fill="#27272A" stroke="#263238" stroke-width="0.117016" stroke-miterlimit="10" stroke-linecap="round" stroke-linejoin="round"/>
  <path d="M83.9363 81.5016C87.3587 80.6868 89.4725 77.252 88.6578 73.8296C87.843 70.4073 84.4081 68.2934 80.9858 69.1082C77.5634 69.923 75.4496 73.3579 76.2643 76.7802C77.0791 80.2025 80.514 82.3164 83.9363 81.5016Z" stroke="white" stroke-width="0.117016" stroke-miterlimit="10"/>
  <path d="M86.3515 72.4224H78.8003L82.5221 76.0104L86.3515 72.4224Z" fill="#86EFAC"/>
  <path d="M84.0344 75.2168L86.6634 77.54V72.7537L84.0344 75.2168Z" fill="#86EFAC"/>
  <path d="M81.0389 75.2126L78.3765 72.646V77.431L81.0389 75.2126Z" fill="#86EFAC"/>
  <path d="M83.701 75.5295L82.5177 76.6381L81.3685 75.5299L78.5979 77.8388H86.3139L83.701 75.5295Z" fill="#86EFAC"/>
</svg>