<svg width="12" height="21" viewBox="0 0 12 21" fill="none" xmlns="http://www.w3.org/2000/svg">
<path d="M6 20.5659C4.46667 20.5659 3.16667 20.0326 2.1 18.9659C1.03333 17.8993 0.5 16.5993 0.5 15.0659V4.56592C0.5 3.46592 0.891667 2.52425 1.675 1.74092C2.45833 0.957585 3.4 0.565918 4.5 0.565918C5.6 0.565918 6.54167 0.957585 7.325 1.74092C8.10833 2.52425 8.5 3.46592 8.5 4.56592V14.0659C8.5 14.7659 8.25833 15.3576 7.775 15.8409C7.29167 16.3243 6.7 16.5659 6 16.5659C5.3 16.5659 4.70833 16.3243 4.225 15.8409C3.74167 15.3576 3.5 14.7659 3.5 14.0659V4.56592H5V14.0659C5 14.3493 5.09583 14.5868 5.2875 14.7784C5.47917 14.9701 5.71667 15.0659 6 15.0659C6.28333 15.0659 6.52083 14.9701 6.7125 14.7784C6.90417 14.5868 7 14.3493 7 14.0659V4.56592C7 3.86592 6.75833 3.27425 6.275 2.79092C5.79167 2.30758 5.2 2.06592 4.5 2.06592C3.8 2.06592 3.20833 2.30758 2.725 2.79092C2.24167 3.27425 2 3.86592 2 4.56592V15.0659C2 16.1659 2.39167 17.1076 3.175 17.8909C3.95833 18.6743 4.9 19.0659 6 19.0659C7.1 19.0659 8.04167 18.6743 8.825 17.8909C9.60833 17.1076 10 16.1659 10 15.0659V4.56592H11.5V15.0659C11.5 16.5993 10.9667 17.8993 9.9 18.9659C8.83333 20.0326 7.53333 20.5659 6 20.5659Z" fill="#0F172A"/>
</svg>
