<svg width="16" height="16" viewBox="0 0 16 16" fill="none" xmlns="http://www.w3.org/2000/svg">
<path d="M10.4375 3.0249C10.175 3.0249 9.95313 2.93428 9.77188 2.75303C9.59063 2.57178 9.5 2.3499 9.5 2.0874C9.5 1.8249 9.59063 1.60303 9.77188 1.42178C9.95313 1.24053 10.175 1.1499 10.4375 1.1499C10.7 1.1499 10.9219 1.24053 11.1031 1.42178C11.2844 1.60303 11.375 1.8249 11.375 2.0874C11.375 2.3499 11.2844 2.57178 11.1031 2.75303C10.9219 2.93428 10.7 3.0249 10.4375 3.0249ZM10.4375 15.3999C10.175 15.3999 9.95313 15.3093 9.77188 15.128C9.59063 14.9468 9.5 14.7249 9.5 14.4624C9.5 14.1999 9.59063 13.978 9.77188 13.7968C9.95313 13.6155 10.175 13.5249 10.4375 13.5249C10.7 13.5249 10.9219 13.6155 11.1031 13.7968C11.2844 13.978 11.375 14.1999 11.375 14.4624C11.375 14.7249 11.2844 14.9468 11.1031 15.128C10.9219 15.3093 10.7 15.3999 10.4375 15.3999ZM13.4375 5.6499C13.175 5.6499 12.9531 5.55928 12.7719 5.37803C12.5906 5.19678 12.5 4.9749 12.5 4.7124C12.5 4.4499 12.5906 4.22803 12.7719 4.04678C12.9531 3.86553 13.175 3.7749 13.4375 3.7749C13.7 3.7749 13.9219 3.86553 14.1031 4.04678C14.2844 4.22803 14.375 4.4499 14.375 4.7124C14.375 4.9749 14.2844 5.19678 14.1031 5.37803C13.9219 5.55928 13.7 5.6499 13.4375 5.6499ZM13.4375 12.7749C13.175 12.7749 12.9531 12.6843 12.7719 12.503C12.5906 12.3218 12.5 12.0999 12.5 11.8374C12.5 11.5749 12.5906 11.353 12.7719 11.1718C12.9531 10.9905 13.175 10.8999 13.4375 10.8999C13.7 10.8999 13.9219 10.9905 14.1031 11.1718C14.2844 11.353 14.375 11.5749 14.375 11.8374C14.375 12.0999 14.2844 12.3218 14.1031 12.503C13.9219 12.6843 13.7 12.7749 13.4375 12.7749ZM14.5625 9.2124C14.3 9.2124 14.0781 9.12178 13.8969 8.94053C13.7156 8.75928 13.625 8.5374 13.625 8.2749C13.625 8.0124 13.7156 7.79053 13.8969 7.60928C14.0781 7.42803 14.3 7.3374 14.5625 7.3374C14.825 7.3374 15.0469 7.42803 15.2281 7.60928C15.4094 7.79053 15.5 8.0124 15.5 8.2749C15.5 8.5374 15.4094 8.75928 15.2281 8.94053C15.0469 9.12178 14.825 9.2124 14.5625 9.2124ZM8 15.7749C6.9625 15.7749 5.9875 15.578 5.075 15.1843C4.1625 14.7905 3.36875 14.2562 2.69375 13.5812C2.01875 12.9062 1.48438 12.1124 1.09063 11.1999C0.696875 10.2874 0.5 9.3124 0.5 8.2749C0.5 7.2374 0.696875 6.2624 1.09063 5.3499C1.48438 4.4374 2.01875 3.64365 2.69375 2.96865C3.36875 2.29365 4.1625 1.75928 5.075 1.36553C5.9875 0.971777 6.9625 0.774902 8 0.774902V2.2749C6.325 2.2749 4.90625 2.85615 3.74375 4.01865C2.58125 5.18115 2 6.5999 2 8.2749C2 9.9499 2.58125 11.3687 3.74375 12.5312C4.90625 13.6937 6.325 14.2749 8 14.2749V15.7749ZM8 9.7749C7.5875 9.7749 7.23438 9.62803 6.94063 9.33428C6.64688 9.04053 6.5 8.6874 6.5 8.2749C6.5 8.2124 6.50312 8.14678 6.50937 8.07803C6.51562 8.00928 6.53125 7.94365 6.55625 7.88115L5 6.3249L6.05 5.2749L7.60625 6.83115C7.65625 6.81865 7.7875 6.7999 8 6.7749C8.4125 6.7749 8.76563 6.92178 9.05938 7.21553C9.35313 7.50928 9.5 7.8624 9.5 8.2749C9.5 8.6874 9.35313 9.04053 9.05938 9.33428C8.76563 9.62803 8.4125 9.7749 8 9.7749Z" fill="#0F172A"/>
</svg>
