<svg width="14" height="16" viewBox="0 0 14 16" fill="none" xmlns="http://www.w3.org/2000/svg">
<path d="M6.875 9.7749C6.6625 9.7749 6.48438 9.70303 6.34063 9.55928C6.19688 9.41553 6.125 9.2374 6.125 9.0249C6.125 8.8124 6.19688 8.63428 6.34063 8.49053C6.48438 8.34678 6.6625 8.2749 6.875 8.2749C7.0875 8.2749 7.26563 8.34678 7.40938 8.49053C7.55313 8.63428 7.625 8.8124 7.625 9.0249C7.625 9.2374 7.55313 9.41553 7.40938 9.55928C7.26563 9.70303 7.0875 9.7749 6.875 9.7749ZM3.875 9.7749C3.6625 9.7749 3.48438 9.70303 3.34062 9.55928C3.19687 9.41553 3.125 9.2374 3.125 9.0249C3.125 8.8124 3.19687 8.63428 3.34062 8.49053C3.48438 8.34678 3.6625 8.2749 3.875 8.2749C4.0875 8.2749 4.26562 8.34678 4.40938 8.49053C4.55312 8.63428 4.625 8.8124 4.625 9.0249C4.625 9.2374 4.55312 9.41553 4.40938 9.55928C4.26562 9.70303 4.0875 9.7749 3.875 9.7749ZM9.875 9.7749C9.6625 9.7749 9.48438 9.70303 9.34063 9.55928C9.19688 9.41553 9.125 9.2374 9.125 9.0249C9.125 8.8124 9.19688 8.63428 9.34063 8.49053C9.48438 8.34678 9.6625 8.2749 9.875 8.2749C10.0875 8.2749 10.2656 8.34678 10.4094 8.49053C10.5531 8.63428 10.625 8.8124 10.625 9.0249C10.625 9.2374 10.5531 9.41553 10.4094 9.55928C10.2656 9.70303 10.0875 9.7749 9.875 9.7749ZM6.875 12.7749C6.6625 12.7749 6.48438 12.703 6.34063 12.5593C6.19688 12.4155 6.125 12.2374 6.125 12.0249C6.125 11.8124 6.19688 11.6343 6.34063 11.4905C6.48438 11.3468 6.6625 11.2749 6.875 11.2749C7.0875 11.2749 7.26563 11.3468 7.40938 11.4905C7.55313 11.6343 7.625 11.8124 7.625 12.0249C7.625 12.2374 7.55313 12.4155 7.40938 12.5593C7.26563 12.703 7.0875 12.7749 6.875 12.7749ZM3.875 12.7749C3.6625 12.7749 3.48438 12.703 3.34062 12.5593C3.19687 12.4155 3.125 12.2374 3.125 12.0249C3.125 11.8124 3.19687 11.6343 3.34062 11.4905C3.48438 11.3468 3.6625 11.2749 3.875 11.2749C4.0875 11.2749 4.26562 11.3468 4.40938 11.4905C4.55312 11.6343 4.625 11.8124 4.625 12.0249C4.625 12.2374 4.55312 12.4155 4.40938 12.5593C4.26562 12.703 4.0875 12.7749 3.875 12.7749ZM9.875 12.7749C9.6625 12.7749 9.48438 12.703 9.34063 12.5593C9.19688 12.4155 9.125 12.2374 9.125 12.0249C9.125 11.8124 9.19688 11.6343 9.34063 11.4905C9.48438 11.3468 9.6625 11.2749 9.875 11.2749C10.0875 11.2749 10.2656 11.3468 10.4094 11.4905C10.5531 11.6343 10.625 11.8124 10.625 12.0249C10.625 12.2374 10.5531 12.4155 10.4094 12.5593C10.2656 12.703 10.0875 12.7749 9.875 12.7749ZM1.625 15.7749C1.2125 15.7749 0.859375 15.628 0.565625 15.3343C0.271875 15.0405 0.125 14.6874 0.125 14.2749V3.7749C0.125 3.3624 0.271875 3.00928 0.565625 2.71553C0.859375 2.42178 1.2125 2.2749 1.625 2.2749H2.375V0.774902H3.875V2.2749H9.875V0.774902H11.375V2.2749H12.125C12.5375 2.2749 12.8906 2.42178 13.1844 2.71553C13.4781 3.00928 13.625 3.3624 13.625 3.7749V14.2749C13.625 14.6874 13.4781 15.0405 13.1844 15.3343C12.8906 15.628 12.5375 15.7749 12.125 15.7749H1.625ZM1.625 14.2749H12.125V6.7749H1.625V14.2749Z" fill="#0F172A"/>
</svg>
