<svg width="68" height="64" viewBox="0 0 68 64" fill="none" xmlns="http://www.w3.org/2000/svg">
<mask id="mask0_117_672" style="mask-type:alpha" maskUnits="userSpaceOnUse" x="14" y="12" width="40" height="40">
<rect x="14" y="12" width="40" height="40" fill="#D4D4D4"/>
</mask>
<g mask="url(#mask0_117_672)">
<path d="M20.5416 51.5137C20.1361 51.5137 19.7963 51.3785 19.5222 51.1082C19.2481 50.8378 19.1111 50.5114 19.1111 50.129C19.1111 49.7466 19.2481 49.4096 19.5222 49.1179C19.7963 48.8263 20.1361 48.6804 20.5416 48.6804H47.4861C47.8736 48.6804 48.2043 48.8211 48.4781 49.1025C48.7519 49.3839 48.8888 49.724 48.8888 50.1227C48.8888 50.5135 48.7519 50.843 48.4781 51.1113C48.2043 51.3796 47.8736 51.5138 47.4861 51.5138L20.5416 51.5137ZM20.5416 15.2915C20.1361 15.2915 19.7963 15.1536 19.5222 14.8776C19.2481 14.6016 19.1111 14.2683 19.1111 13.8776C19.1111 13.4869 19.2481 13.1527 19.5222 12.8749C19.7963 12.5971 20.1361 12.4583 20.5416 12.4583H47.4861C47.8736 12.4583 48.2043 12.5962 48.4781 12.872C48.7519 13.1478 48.8888 13.4809 48.8888 13.8713C48.8888 14.2538 48.7519 14.5861 48.4781 14.8683C48.2043 15.1505 47.8736 15.2915 47.4861 15.2915H20.5416ZM33.9959 34.0971C35.4801 34.0971 36.7314 33.6008 37.75 32.6081C38.7685 31.6155 39.2777 30.3771 39.2777 28.8928C39.2777 27.4086 38.7725 26.1642 37.7622 25.1596C36.7519 24.155 35.5019 23.6527 34.0122 23.6527C32.5226 23.6527 31.2731 24.155 30.2638 25.1596C29.2546 26.1642 28.75 27.4073 28.75 28.8888C28.75 30.3702 29.2532 31.6087 30.2598 32.604C31.2663 33.5994 32.5117 34.0971 33.9959 34.0971ZM20.4027 46.486C19.1777 46.486 18.1353 46.0464 17.2756 45.1672C16.4159 44.2881 15.9861 43.2554 15.9861 42.0693V21.9443C15.9861 20.6892 16.4159 19.637 17.2757 18.7878C18.1354 17.9384 19.1777 17.5138 20.4027 17.5138H47.625C48.8204 17.5138 49.8507 17.9534 50.7159 18.8325C51.5812 19.7117 52.0138 20.7489 52.0138 21.9443V42.0693C52.0138 43.2554 51.5812 44.2881 50.7159 45.1672C49.8507 46.0464 48.8204 46.486 47.625 46.486H20.4027ZM22.7083 42.5832H45.2916C44.1064 40.8054 42.4884 39.398 40.4375 38.361C38.3865 37.324 36.2407 36.8055 34 36.8055C31.7407 36.8055 29.5995 37.324 27.5764 38.361C25.5532 39.398 23.9305 40.8054 22.7083 42.5832Z" fill="white"/>
</g>
</svg>
