<svg width="19" height="19" viewBox="0 0 19 19" fill="none" xmlns="http://www.w3.org/2000/svg">
<path d="M3.6209 13.0267H16.7443V2.422H14.5349V8.60809L12.3256 7.2825L10.1163 8.60809V2.422H2.60461V14.0209L3.6209 13.0267ZM0.837158 18.3291V2.422C0.837158 1.93595 1.01022 1.51986 1.35635 1.17373C1.70248 0.827604 2.11856 0.654541 2.60461 0.654541H16.7443C17.2303 0.654541 17.6464 0.827604 17.9925 1.17373C18.3387 1.51986 18.5117 1.93595 18.5117 2.422V13.0267C18.5117 13.5128 18.3387 13.9289 17.9925 14.275C17.6464 14.6211 17.2303 14.7942 16.7443 14.7942H4.37207L0.837158 18.3291Z" fill="#18181B"/>
</svg>
