<svg width="41" height="41" viewBox="0 0 41 41" fill="none" xmlns="http://www.w3.org/2000/svg">
<mask id="mask0_4_2616" style="mask-type:alpha" maskUnits="userSpaceOnUse" x="0" y="0" width="41" height="41">
<rect x="0.223389" y="0.896484" width="40" height="40" fill="#D4D4D4"/>
</mask>
<g mask="url(#mask0_4_2616)">
<path d="M9.05668 32.0907L6.11222 35.0352C5.40853 35.7389 4.60297 35.9148 3.69556 35.563C2.78817 35.2111 2.33447 34.5167 2.33447 33.4796V7.38237C2.33447 6.16942 2.76735 5.12545 3.6331 4.25045C4.49882 3.37548 5.53815 2.93799 6.7511 2.93799H33.6956C34.9085 2.93799 35.9525 3.37548 36.8275 4.25045C37.7025 5.12545 38.14 6.16942 38.14 7.38237V27.6741C38.14 28.887 37.7025 29.9264 36.8275 30.7921C35.9525 31.6578 34.9085 32.0907 33.6956 32.0907H9.05668ZM21.2511 7.38237V16.0074C21.2511 16.4055 21.4363 16.7227 21.8067 16.9588C22.1771 17.1949 22.5428 17.1972 22.9039 16.9657L24.5151 16.1602C24.8021 15.9935 25.0845 15.9102 25.3623 15.9102C25.64 15.9102 25.9086 15.9935 26.1678 16.1602L27.7789 16.9657C28.1215 17.1972 28.4849 17.1949 28.8692 16.9588C29.2535 16.7227 29.4456 16.4055 29.4456 16.0074V7.38237H21.2511Z" fill="#1E293B"/>
</g>
</svg>
