<svg width="13" height="16" viewBox="0 0 13 16" fill="none" xmlns="http://www.w3.org/2000/svg">
<path d="M6.5 9.20874C6.9125 9.20874 7.26563 9.06187 7.55938 8.76812C7.85313 8.47437 8 8.12124 8 7.70874C8 7.29624 7.85313 6.94312 7.55938 6.64937C7.26563 6.35562 6.9125 6.20874 6.5 6.20874C6.0875 6.20874 5.73438 6.35562 5.44063 6.64937C5.14687 6.94312 5 7.29624 5 7.70874C5 8.12124 5.14687 8.47437 5.44063 8.76812C5.73438 9.06187 6.0875 9.20874 6.5 9.20874ZM3.5 12.2087H9.5V11.7775C9.5 11.4775 9.41875 11.2025 9.25625 10.9525C9.09375 10.7025 8.86875 10.515 8.58125 10.39C8.25625 10.2525 7.92188 10.1462 7.57812 10.0712C7.23438 9.99624 6.875 9.95874 6.5 9.95874C6.125 9.95874 5.76562 9.99624 5.42188 10.0712C5.07812 10.1462 4.74375 10.2525 4.41875 10.39C4.13125 10.515 3.90625 10.7025 3.74375 10.9525C3.58125 11.2025 3.5 11.4775 3.5 11.7775V12.2087ZM11 15.2087H2C1.5875 15.2087 1.23438 15.0619 0.940625 14.7681C0.646875 14.4744 0.5 14.1212 0.5 13.7087V1.70874C0.5 1.29624 0.646875 0.943115 0.940625 0.649365C1.23438 0.355615 1.5875 0.20874 2 0.20874H8L12.5 4.70874V13.7087C12.5 14.1212 12.3531 14.4744 12.0594 14.7681C11.7656 15.0619 11.4125 15.2087 11 15.2087ZM11 13.7087V5.34624L7.3625 1.70874H2V13.7087H11Z" fill="#0F172A"/>
</svg>
