<svg width="24" height="25" viewBox="0 0 24 25" fill="none" xmlns="http://www.w3.org/2000/svg">
<mask id="mask0_611_598" style="mask-type:alpha" maskUnits="userSpaceOnUse" x="0" y="0" width="24" height="25">
<rect y="0.708984" width="24" height="24" fill="#D4D4D4"/>
</mask>
<g mask="url(#mask0_611_598)">
<path d="M6.725 22.5588C5.84167 22.5588 5.09583 22.2546 4.4875 21.6463C3.87917 21.038 3.575 20.2921 3.575 19.4088V6.98379C3.14167 6.98379 2.77083 6.82962 2.4625 6.52129C2.15417 6.21296 2 5.84212 2 5.40879C2 4.97546 2.15417 4.60462 2.4625 4.29629C2.77083 3.98796 3.14167 3.83379 3.575 3.83379H8.425C8.425 3.40046 8.57917 3.02962 8.8875 2.72129C9.19583 2.41296 9.56667 2.25879 10 2.25879H13.95C14.3833 2.25879 14.7542 2.41296 15.0625 2.72129C15.3708 3.02962 15.525 3.40046 15.525 3.83379H20.425C20.8583 3.83379 21.2292 3.98796 21.5375 4.29629C21.8458 4.60462 22 4.97546 22 5.40879C22 5.84212 21.8458 6.21296 21.5375 6.52129C21.2292 6.82962 20.8583 6.98379 20.425 6.98379V19.4088C20.425 20.2921 20.1208 21.038 19.5125 21.6463C18.9042 22.2546 18.1583 22.5588 17.275 22.5588H6.725ZM12 15.0338L13.625 16.6588C13.875 16.9088 14.1792 17.0296 14.5375 17.0213C14.8958 17.013 15.2 16.8838 15.45 16.6338C15.7 16.3838 15.825 16.0796 15.825 15.7213C15.825 15.363 15.7 15.0588 15.45 14.8088L13.825 13.2088L15.45 11.5838C15.7 11.3338 15.825 11.0296 15.825 10.6713C15.825 10.313 15.7 10.0088 15.45 9.75879C15.2 9.50879 14.8958 9.38379 14.5375 9.38379C14.1792 9.38379 13.875 9.50879 13.625 9.75879L12 11.3838L10.375 9.75879C10.125 9.50879 9.825 9.38379 9.475 9.38379C9.125 9.38379 8.825 9.50879 8.575 9.75879C8.325 10.0088 8.2 10.313 8.2 10.6713C8.2 11.0296 8.325 11.3338 8.575 11.5838L10.175 13.2088L8.55 14.8338C8.3 15.0838 8.17917 15.3838 8.1875 15.7338C8.19583 16.0838 8.325 16.3838 8.575 16.6338C8.825 16.8838 9.12917 17.0088 9.4875 17.0088C9.84583 17.0088 10.15 16.8838 10.4 16.6338L12 15.0338Z" fill="#B91C1C"/>
</g>
</svg>
