<svg width="13" height="16" viewBox="0 0 13 16" fill="none" xmlns="http://www.w3.org/2000/svg">
<path d="M3.5 12.2087H9.5V10.7087H3.5V12.2087ZM3.5 9.20874H9.5V7.70874H3.5V9.20874ZM2 15.2087C1.5875 15.2087 1.23438 15.0619 0.940625 14.7681C0.646875 14.4744 0.5 14.1212 0.5 13.7087V1.70874C0.5 1.29624 0.646875 0.943115 0.940625 0.649365C1.23438 0.355615 1.5875 0.20874 2 0.20874H8L12.5 4.70874V13.7087C12.5 14.1212 12.3531 14.4744 12.0594 14.7681C11.7656 15.0619 11.4125 15.2087 11 15.2087H2ZM7.25 5.45874V1.70874H2V13.7087H11V5.45874H7.25Z" fill="#0F172A"/>
</svg>
