<svg width="23" height="20" viewBox="0 0 23 20" fill="none" xmlns="http://www.w3.org/2000/svg">
<path d="M0 19.313V14.988C0 14.338 0.229167 13.788 0.6875 13.338C1.14583 12.888 1.69167 12.663 2.325 12.663H5.6C5.85 12.663 6.0875 12.7213 6.3125 12.838C6.5375 12.9547 6.725 13.1297 6.875 13.363C7.39167 14.0963 8.0375 14.663 8.8125 15.063C9.5875 15.463 10.425 15.663 11.325 15.663C12.225 15.663 13.0667 15.463 13.85 15.063C14.6333 14.663 15.2833 14.0963 15.8 13.363C15.95 13.1297 16.1375 12.9547 16.3625 12.838C16.5875 12.7213 16.8167 12.663 17.05 12.663H20.325C20.975 12.663 21.525 12.888 21.975 13.338C22.425 13.788 22.65 14.338 22.65 14.988V19.313H15V17.413C14.4333 17.6963 13.8417 17.9172 13.225 18.0755C12.6083 18.2338 11.975 18.313 11.325 18.313C10.6917 18.313 10.0667 18.2338 9.45 18.0755C8.83333 17.9172 8.23333 17.6963 7.65 17.413V19.313H0ZM11.325 14.163C10.775 14.163 10.2542 14.0297 9.7625 13.763C9.27083 13.4963 8.85833 13.1463 8.525 12.713C8.19167 12.2297 7.775 11.8547 7.275 11.588C6.775 11.3213 6.24167 11.1797 5.675 11.163C6.20833 10.6297 7.0375 10.1922 8.1625 9.85049C9.2875 9.50882 10.3417 9.33799 11.325 9.33799C12.325 9.33799 13.3875 9.50882 14.5125 9.85049C15.6375 10.1922 16.4667 10.6297 17 11.163C16.4167 11.1797 15.8792 11.3213 15.3875 11.588C14.8958 11.8547 14.4833 12.2297 14.15 12.713C13.8333 13.163 13.425 13.5172 12.925 13.7755C12.425 14.0338 11.8917 14.163 11.325 14.163ZM3.325 10.663C2.40833 10.663 1.625 10.338 0.975 9.68799C0.325 9.03799 0 8.25465 0 7.33799C0 6.40465 0.325 5.61716 0.975 4.97549C1.625 4.33382 2.40833 4.01299 3.325 4.01299C4.25833 4.01299 5.04583 4.33382 5.6875 4.97549C6.32917 5.61716 6.65 6.40465 6.65 7.33799C6.65 8.25465 6.32917 9.03799 5.6875 9.68799C5.04583 10.338 4.25833 10.663 3.325 10.663ZM19.325 10.663C18.4083 10.663 17.625 10.338 16.975 9.68799C16.325 9.03799 16 8.25465 16 7.33799C16 6.40465 16.325 5.61716 16.975 4.97549C17.625 4.33382 18.4083 4.01299 19.325 4.01299C20.2583 4.01299 21.0458 4.33382 21.6875 4.97549C22.3292 5.61716 22.65 6.40465 22.65 7.33799C22.65 8.25465 22.3292 9.03799 21.6875 9.68799C21.0458 10.338 20.2583 10.663 19.325 10.663ZM11.325 7.33799C10.4083 7.33799 9.625 7.01299 8.975 6.36299C8.325 5.71299 8 4.92966 8 4.01299C8 3.07965 8.325 2.29216 8.975 1.65049C9.625 1.00882 10.4083 0.687988 11.325 0.687988C12.2583 0.687988 13.0458 1.00882 13.6875 1.65049C14.3292 2.29216 14.65 3.07965 14.65 4.01299C14.65 4.92966 14.3292 5.71299 13.6875 6.36299C13.0458 7.01299 12.2583 7.33799 11.325 7.33799Z" fill="#1C1B1F"/>
</svg>
