<svg width="15" height="14" viewBox="0 0 15 14" fill="none" xmlns="http://www.w3.org/2000/svg">
<path d="M1.89032 14.0084C1.41634 14.0084 1.01058 13.8397 0.67304 13.5021C0.335512 13.1646 0.166748 12.7588 0.166748 12.2849V2.98405C0.166748 2.51007 0.335512 2.10432 0.67304 1.76679C1.01058 1.42925 1.41634 1.26048 1.89032 1.26048H8.0204L6.29682 2.98405H1.89032V12.2849H11.1911V7.87836L12.9147 6.15478V12.2849C12.9147 12.7588 12.7459 13.1646 12.4084 13.5021C12.0709 13.8397 11.6651 14.0084 11.1911 14.0084H1.89032ZM8.97975 2.12227L10.2155 3.35804L6.1017 7.43933V8.07348H6.71959L10.8334 3.97592L12.0367 5.19543L7.45129 9.79706H4.37813V6.72389L8.97975 2.12227ZM12.0367 5.19543L8.97975 2.12227L10.5895 0.512512C10.9326 0.165629 11.3435 -0.0078125 11.8224 -0.0078125C12.3013 -0.0078125 12.7087 0.165629 13.0448 0.512512L13.6627 1.14666C13.9987 1.49354 14.1667 1.90004 14.1667 2.36617C14.1667 2.83229 13.9987 3.23338 13.6627 3.56942L12.0367 5.19543Z" fill="#899C90"/>
</svg>
