<svg width="36" height="36" viewBox="0 0 36 36" fill="none" xmlns="http://www.w3.org/2000/svg">
<mask id="mask0_4_2335" style="mask-type:alpha" maskUnits="userSpaceOnUse" x="0" y="0" width="37" height="36">
<rect x="0.445557" y="0.118652" width="35.5556" height="35.5556" fill="#D4D4D4"/>
</mask>
<g mask="url(#mask0_4_2335)">
<path d="M29.4412 19.551C28.9811 19.551 28.6178 19.4069 28.3513 19.1188C28.0849 18.8308 27.9517 18.4687 27.9517 18.0324V15.0941H24.9887C24.5298 15.0941 24.1662 14.9544 23.8976 14.6748C23.6291 14.3952 23.4949 14.03 23.4949 13.5791C23.4949 13.1389 23.6291 12.7794 23.8976 12.5004C24.1662 12.2214 24.5298 12.0818 24.9887 12.0818H27.9517V9.15589C27.9517 8.69705 28.0863 8.33337 28.3556 8.06485C28.6248 7.79633 28.9853 7.66207 29.437 7.66207C29.8641 7.66207 30.2253 7.79633 30.5208 8.06485C30.8162 8.33337 30.964 8.69705 30.964 9.15589V12.0818H33.8652C34.3171 12.0818 34.6831 12.2228 34.9634 12.5047C35.2436 12.7866 35.3838 13.1435 35.3838 13.5754C35.3838 14.0321 35.2436 14.3993 34.9634 14.6773C34.6831 14.9552 34.3171 15.0941 33.8652 15.0941H30.964V18.0324C30.964 18.4687 30.8173 18.8308 30.5239 19.1188C30.2304 19.4069 29.8695 19.551 29.4412 19.551ZM13.9793 17.304C12.0317 17.304 10.4187 16.6656 9.14057 15.3888C7.86239 14.1121 7.22331 12.5052 7.22331 10.5683C7.22331 8.60677 7.86262 6.99416 9.14123 5.73048C10.4199 4.4668 12.0289 3.83496 13.9684 3.83496C15.9325 3.83496 17.5566 4.4668 18.8405 5.73048C20.1245 6.99416 20.7665 8.60677 20.7665 10.5683C20.7665 12.5052 20.1267 14.1121 18.847 15.3888C17.5674 16.6656 15.9448 17.304 13.9793 17.304ZM2.97635 31.4028C2.42079 31.4028 1.95886 31.2186 1.59057 30.8503C1.22225 30.482 1.03809 30.0225 1.03809 29.4717V26.5854C1.03809 25.5013 1.31416 24.5277 1.86631 23.6644C2.41846 22.8012 3.1603 22.1484 4.09183 21.706C5.87239 20.8601 7.55365 20.2544 9.1356 19.8891C10.7176 19.5238 12.3298 19.3411 13.9724 19.3411C15.6293 19.3411 17.2397 19.5263 18.8035 19.8966C20.3673 20.267 22.0545 20.8678 23.8652 21.6991C24.8255 22.1276 25.58 22.7695 26.1286 23.6248C26.6773 24.4802 26.9516 25.4638 26.9516 26.5756V29.4717C26.9516 30.0225 26.7591 30.482 26.3739 30.8503C25.9887 31.2186 25.5228 31.4028 24.9763 31.4028H2.97635Z" fill="#1E293B"/>
</g>
</svg>
