<svg width="21" height="17" viewBox="0 0 21 17" fill="none" xmlns="http://www.w3.org/2000/svg">
<path d="M3.5 12.5659H13.5L10.05 8.06592L7.75 11.0659L6.2 9.06592L3.5 12.5659ZM2.5 16.5659C1.95 16.5659 1.47917 16.3701 1.0875 15.9784C0.695833 15.5868 0.5 15.1159 0.5 14.5659V2.56592C0.5 2.01592 0.695833 1.54508 1.0875 1.15342C1.47917 0.761751 1.95 0.565918 2.5 0.565918H14.5C15.05 0.565918 15.5208 0.761751 15.9125 1.15342C16.3042 1.54508 16.5 2.01592 16.5 2.56592V7.06592L20.5 3.06592V14.0659L16.5 10.0659V14.5659C16.5 15.1159 16.3042 15.5868 15.9125 15.9784C15.5208 16.3701 15.05 16.5659 14.5 16.5659H2.5Z" fill="#0F172A"/>
</svg>
