<svg width="27" height="26" viewBox="0 0 27 26" fill="none" xmlns="http://www.w3.org/2000/svg">
<path d="M13.4093 0.000316835C11.1632 0.0159849 8.95952 0.613347 7.013 1.73417C5.06649 2.855 3.44359 4.46104 2.30251 6.39575C1.16142 8.33046 0.541086 10.5278 0.501972 12.7736C0.462857 15.0194 1.0063 17.237 2.07932 19.2103C2.09847 19.2619 2.09847 19.3187 2.07932 19.3703L1.15932 25.6503C1.15358 25.6902 1.15758 25.7309 1.17096 25.7689C1.18435 25.8069 1.20673 25.8412 1.23619 25.8687C1.26566 25.8962 1.30134 25.9161 1.34019 25.9269C1.37904 25.9376 1.41991 25.9388 1.45932 25.9303L7.68932 24.7103C7.74076 24.6902 7.79788 24.6902 7.84932 24.7103C9.58421 25.5469 11.4833 25.9875 13.4093 26.0003C16.8369 25.9855 20.1232 24.633 22.5682 22.2309C25.0132 19.8289 26.4238 16.567 26.4993 13.1403C26.518 11.4138 26.1925 9.70084 25.5419 8.10148C24.8912 6.50212 23.9286 5.04839 22.71 3.82515C21.4914 2.60191 20.0413 1.63368 18.4445 0.97698C16.8476 0.320278 15.1359 -0.0117373 13.4093 0.000316835ZM13.4993 23.7203C11.656 23.7242 9.84334 23.2486 8.23932 22.3403C8.18084 22.3212 8.1178 22.3212 8.05932 22.3403L6.32932 22.6803L5.06932 22.9303L3.79932 23.1803L3.98932 21.8903L4.18932 20.4903L4.42932 18.8603C4.44918 18.8054 4.44918 18.7452 4.42932 18.6903C3.16766 16.6758 2.61132 14.2991 2.84778 11.9339C3.08424 9.56872 4.10008 7.3492 5.73559 5.62433C7.37109 3.89947 9.53348 2.76709 11.8828 2.40526C14.232 2.04343 16.635 2.47266 18.7137 3.62546C20.7924 4.77827 22.429 6.58926 23.3662 8.77369C24.3034 10.9581 24.488 13.3921 23.891 15.6929C23.2939 17.9936 21.9492 20.0307 20.0681 21.4839C18.187 22.937 15.8763 23.7237 13.4993 23.7203ZM9.26932 6.53032H9.87932C9.98639 6.52847 10.092 6.55532 10.1852 6.60807C10.2784 6.66083 10.3558 6.73756 10.4093 6.83032C10.4838 6.93381 10.5412 7.04861 10.5793 7.17032C10.8393 7.80032 11.4693 9.70032 11.4693 9.70032C11.5023 9.85783 11.4969 10.021 11.4533 10.1759C11.4098 10.3309 11.3295 10.473 11.2193 10.5903L10.4593 11.3503C10.3837 11.4243 10.3341 11.5208 10.3179 11.6254C10.3016 11.7299 10.3197 11.8369 10.3693 11.9303C11.2884 13.7318 12.7272 15.2158 14.4993 16.1903C14.6701 16.2602 14.8586 16.2747 15.038 16.2316C15.2175 16.1885 15.3789 16.0901 15.4993 15.9503L16.5993 14.6803C16.6379 14.6354 16.6906 14.6049 16.7488 14.594C16.807 14.5831 16.8671 14.5924 16.9193 14.6203L19.7793 16.2203C19.8196 16.2435 19.8528 16.2771 19.8757 16.3176C19.8986 16.358 19.9102 16.4039 19.9093 16.4503V16.8703C19.9112 17.0134 19.8875 17.1556 19.8393 17.2903C19.6323 17.9131 19.2268 18.4509 18.685 18.8212C18.1431 19.1914 17.4948 19.3738 16.8393 19.3403C14.3093 19.3403 11.0093 16.9303 9.48932 15.0303C7.96932 13.1303 6.94932 10.8403 6.94932 9.83032C6.94699 9.22938 7.08499 8.6362 7.35235 8.09802C7.61971 7.55983 8.00903 7.0915 8.48932 6.73032C8.72214 6.58404 8.99483 6.51412 9.26932 6.53032Z" fill="#111B21"/>
</svg>
